<svg width="438" height="438" viewBox="0 0 438 438" fill="none" xmlns="http://www.w3.org/2000/svg">
<g filter="url(#filter0_d_51_1552)">
<g clip-path="url(#clip0_51_1552)">
<rect x="53" y="53" width="300" height="300" rx="4" fill="white"/>
<g opacity="0.55">
<path opacity="0.55" d="M277.22 177.71V186.98H258.65" stroke="#474747" stroke-width="6" stroke-miterlimit="10" stroke-linecap="round" stroke-linejoin="round"/>
<path opacity="0.55" d="M295.76 186.98H277.22V177.71" stroke="#474747" stroke-width="6" stroke-miterlimit="10" stroke-linecap="round" stroke-linejoin="round"/>
<path opacity="0.55" d="M286.49 186.98H267.92V196.25H286.49V186.98Z" stroke="#474747" stroke-width="6" stroke-miterlimit="10" stroke-linecap="round" stroke-linejoin="round"/>
<path opacity="0.55" d="M282.47 205.55H277.22V196.28H295.76" stroke="#474747" stroke-width="6" stroke-miterlimit="10" stroke-linecap="round" stroke-linejoin="round"/>
<path opacity="0.55" d="M258.65 196.28H277.22V205.55H262.16" stroke="#474747" stroke-width="6" stroke-miterlimit="10" stroke-linecap="round" stroke-linejoin="round"/>
<path opacity="0.55" d="M252.32 186.98H267.92V196.28H258.65" stroke="#474747" stroke-width="6" stroke-miterlimit="10" stroke-linecap="round" stroke-linejoin="round"/>
<path opacity="0.55" d="M299.87 196.28H286.49V186.98H292.91" stroke="#474747" stroke-width="6" stroke-miterlimit="10" stroke-linecap="round" stroke-linejoin="round"/>
</g>
<g opacity="0.55">
<path opacity="0.55" d="M252.8 153.95L236.72 137.87C234.38 135.53 234.38 131.72 236.72 129.38L252.8 113.3C255.14 110.96 258.95 110.96 261.29 113.3L277.37 129.38C279.71 131.72 279.71 135.53 277.37 137.87L261.29 153.95C258.95 156.29 255.14 156.29 252.8 153.95Z" stroke="#333333" stroke-width="10" stroke-miterlimit="10" stroke-linecap="round" stroke-linejoin="round"/>
<path opacity="0.55" d="M257.03 117.5V114.56" stroke="#333333" stroke-width="6" stroke-miterlimit="10" stroke-linecap="round" stroke-linejoin="round"/>
<path opacity="0.55" d="M257.03 152.69V149.75" stroke="#333333" stroke-width="6" stroke-miterlimit="10" stroke-linecap="round" stroke-linejoin="round"/>
<path opacity="0.55" d="M273.17 133.64H276.11" stroke="#333333" stroke-width="6" stroke-miterlimit="10" stroke-linecap="round" stroke-linejoin="round"/>
<path opacity="0.55" d="M237.98 133.64H240.92" stroke="#333333" stroke-width="6" stroke-miterlimit="10" stroke-linecap="round" stroke-linejoin="round"/>
<path opacity="0.55" d="M257.03 133.64L252.35 129.26" stroke="#333333" stroke-width="8" stroke-miterlimit="10" stroke-linecap="round" stroke-linejoin="round"/>
<path opacity="0.55" d="M264.05 124.37L257.03 134.15" stroke="#333333" stroke-width="5" stroke-miterlimit="10" stroke-linecap="round" stroke-linejoin="round"/>
<path opacity="0.55" d="M257.42 135.92C258.679 135.92 259.7 134.899 259.7 133.64C259.7 132.381 258.679 131.36 257.42 131.36C256.16 131.36 255.14 132.381 255.14 133.64C255.14 134.899 256.16 135.92 257.42 135.92Z" fill="#333333"/>
</g>
<g opacity="0.55">
<path opacity="0.55" d="M155.63 132.23H125V162.71H155.63V132.23Z" stroke="#333333" stroke-width="10" stroke-miterlimit="10" stroke-linecap="round" stroke-linejoin="round"/>
<path opacity="0.55" d="M184.4 110.09H161.27V140.57H184.4V110.09Z" stroke="#333333" stroke-width="10" stroke-miterlimit="10" stroke-linecap="round" stroke-linejoin="round"/>
<path opacity="0.55" d="M131 148.25L139.19 140.06" stroke="#333333" stroke-width="4" stroke-miterlimit="10" stroke-linecap="round" stroke-linejoin="round"/>
<path opacity="0.55" d="M138.38 147.47L145.76 140.06" stroke="#333333" stroke-width="4" stroke-miterlimit="10" stroke-linecap="round" stroke-linejoin="round"/>
<path opacity="0.55" d="M132.62 153.23L135.62 150.2" stroke="#333333" stroke-width="4" stroke-miterlimit="10" stroke-linecap="round" stroke-linejoin="round"/>
<path opacity="0.55" d="M168.14 124.31L173.75 118.7" stroke="#333333" stroke-width="4" stroke-miterlimit="10" stroke-linecap="round" stroke-linejoin="round"/>
<path opacity="0.55" d="M176.51 122.93L178.67 120.77" stroke="#333333" stroke-width="4" stroke-miterlimit="10" stroke-linecap="round" stroke-linejoin="round"/>
<path opacity="0.55" d="M167.24 132.23L174.11 125.33" stroke="#333333" stroke-width="4" stroke-miterlimit="10" stroke-linecap="round" stroke-linejoin="round"/>
</g>
<path d="M280.49 278.27H286.31" stroke="#43293A" stroke-width="10" stroke-miterlimit="10" stroke-linecap="round" stroke-linejoin="round"/>
<path d="M291.41 278.27H292.85" stroke="#43293A" stroke-width="10" stroke-miterlimit="10" stroke-linecap="round" stroke-linejoin="round"/>
<path d="M125.3 278.27H275" stroke="#43293A" stroke-width="10" stroke-miterlimit="10" stroke-linecap="round" stroke-linejoin="round"/>
<path d="M111.65 278.27H118.7" stroke="#43293A" stroke-width="10" stroke-miterlimit="10" stroke-linecap="round" stroke-linejoin="round"/>
<path d="M166.76 168.56C166.76 166.19 168.68 164.27 171.05 164.27C173.42 164.27 175.34 166.19 175.34 168.56H166.76Z" fill="#FFE5CC"/>
<path d="M166.76 168.56C166.76 166.19 168.68 164.27 171.05 164.27C173.42 164.27 175.34 166.19 175.34 168.56H166.76Z" stroke="#43293A" stroke-width="8" stroke-miterlimit="10" stroke-linecap="round" stroke-linejoin="round"/>
<path d="M230.69 168.56C230.69 166.19 232.61 164.27 234.98 164.27C237.35 164.27 239.27 166.19 239.27 168.56H230.69Z" fill="#FFE5CC"/>
<path d="M230.69 168.56C230.69 166.19 232.61 164.27 234.98 164.27C237.35 164.27 239.27 166.19 239.27 168.56H230.69Z" stroke="#43293A" stroke-width="8" stroke-miterlimit="10" stroke-linecap="round" stroke-linejoin="round"/>
<path d="M236.72 172.25C230.45 172.25 225.38 169.85 222.41 165.38L220.49 162.8C216.53 157.49 210.11 154.34 203.36 154.34H202.64C195.89 154.34 189.5 157.49 185.51 162.8L183.59 165.38C179.9 170.96 172.91 173.3 164.42 171.8L165.05 168.26C169.19 168.98 176.72 169.34 180.62 163.37L180.68 163.28L182.63 160.67C187.28 154.46 194.75 150.77 202.64 150.77H203.36C211.25 150.77 218.72 154.46 223.37 160.67L225.41 163.37C229.31 169.34 236.84 169.01 240.98 168.26L241.61 171.8C239.9 172.1 238.28 172.25 236.72 172.25Z" fill="#AD5349"/>
<path d="M236.72 172.25C230.45 172.25 225.38 169.85 222.41 165.38L220.49 162.8C216.53 157.49 210.11 154.34 203.36 154.34H202.64C195.89 154.34 189.5 157.49 185.51 162.8L183.59 165.38C179.9 170.96 172.91 173.3 164.42 171.8L165.05 168.26C169.19 168.98 176.72 169.34 180.62 163.37L180.68 163.28L182.63 160.67C187.28 154.46 194.75 150.77 202.64 150.77H203.36C211.25 150.77 218.72 154.46 223.37 160.67L225.41 163.37C229.31 169.34 236.84 169.01 240.98 168.26L241.61 171.8C239.9 172.1 238.28 172.25 236.72 172.25Z" stroke="#43293A" stroke-width="10" stroke-miterlimit="10" stroke-linecap="round" stroke-linejoin="round"/>
<path d="M143.6 220.01H137.93L131.51 262.31C131.51 262.31 136.04 260.18 137.57 260.18C142.43 260.18 143.63 262.31 143.63 262.31V220.01H143.6Z" fill="#FF8345"/>
<path d="M143.6 220.01H137.93L131.51 262.31C131.51 262.31 136.04 260.18 137.57 260.18C142.43 260.18 143.63 262.31 143.63 262.31V220.01H143.6Z" stroke="#43293A" stroke-width="10" stroke-miterlimit="10" stroke-linecap="round" stroke-linejoin="round"/>
<path d="M143.6 220.01H137.93L131.51 262.31C131.51 262.31 136.04 260.18 137.57 260.18C142.43 260.18 143.63 262.31 143.63 262.31V220.01H143.6Z" stroke="#43293A" stroke-width="10" stroke-miterlimit="10" stroke-linecap="round" stroke-linejoin="round"/>
<path d="M142.79 220.01H137.96L131.54 262.31C131.54 262.31 134.78 260.81 136.7 260.33L142.79 220.01Z" fill="#AD5349"/>
<path d="M142.79 220.01H137.96L131.54 262.31C131.54 262.31 134.78 260.81 136.7 260.33L142.79 220.01Z" stroke="#43293A" stroke-width="10" stroke-miterlimit="10" stroke-linecap="round" stroke-linejoin="round"/>
<path d="M262.4 220.01H268.07L274.49 262.31C274.49 262.31 269.96 260.18 268.43 260.18C263.57 260.18 262.37 262.31 262.37 262.31V220.01H262.4Z" fill="#FF8345"/>
<path d="M262.4 220.01H268.07L274.49 262.31C274.49 262.31 269.96 260.18 268.43 260.18C263.57 260.18 262.37 262.31 262.37 262.31V220.01H262.4Z" stroke="#43293A" stroke-width="10" stroke-miterlimit="10" stroke-linecap="round" stroke-linejoin="round"/>
<path d="M262.4 220.01H268.07L274.49 262.31C274.49 262.31 269.96 260.18 268.43 260.18C263.57 260.18 262.37 262.31 262.37 262.31V220.01H262.4Z" stroke="#43293A" stroke-width="10" stroke-miterlimit="10" stroke-linecap="round" stroke-linejoin="round"/>
<path d="M263.209 220.01H268.039L274.459 262.31C274.459 262.31 271.219 260.81 269.299 260.33L263.209 220.01Z" fill="#AD5349"/>
<path d="M263.209 220.01H268.039L274.459 262.31C274.459 262.31 271.219 260.81 269.299 260.33L263.209 220.01Z" stroke="#43293A" stroke-width="10" stroke-miterlimit="10" stroke-linecap="round" stroke-linejoin="round"/>
<path d="M255.74 278.09H150.14C146.15 278.09 142.94 274.88 142.94 270.89V195.89H262.94V270.89C262.94 274.88 259.73 278.09 255.74 278.09Z" fill="#AD5349"/>
<path opacity="0.48" d="M219.8 258.5H186.2C183.56 258.5 181.4 256.34 181.4 253.7V241.49H224.6V253.7C224.6 256.37 222.44 258.5 219.8 258.5Z" fill="#AD5349" stroke="#AD5349" stroke-width="10" stroke-miterlimit="10"/>
<path d="M206.57 256.61C206.57 258.59 204.98 260.18 203 260.18C201.02 260.18 199.43 258.59 199.43 256.61H196.73C196.73 260.06 199.55 262.88 203 262.88C206.45 262.88 209.27 260.06 209.27 256.61H206.57Z" fill="white"/>
<path d="M206.57 256.61C206.57 258.59 204.98 260.18 203 260.18C201.02 260.18 199.43 258.59 199.43 256.61H196.73C196.73 260.06 199.55 262.88 203 262.88C206.45 262.88 209.27 260.06 209.27 256.61H206.57Z" stroke="#43293A" stroke-width="4" stroke-miterlimit="10" stroke-linecap="round" stroke-linejoin="round"/>
<path opacity="0.48" d="M255.8 274.7H150.2C146.21 274.7 143 271.49 143 267.5V271.04C143 275.03 146.21 278.24 150.2 278.24H255.8C259.79 278.24 263 275.03 263 271.04V267.5C263 271.49 259.79 274.7 255.8 274.7Z" fill="#AD5349"/>
<path d="M263 229.97V197.24H143V229.97C144.62 230.75 146.36 231.32 148.22 231.71C163.85 234.86 180.95 236.33 202.04 236.33H203.96C225.05 236.33 242.15 234.86 257.78 231.71C259.64 231.32 261.38 230.75 263 229.97Z" fill="#933B34"/>
<path d="M219.8 256.4H186.2C183.56 256.4 181.4 254.24 181.4 251.6V239.39H224.6V251.6C224.6 254.27 222.44 256.4 219.8 256.4Z" fill="#FF8345"/>
<path opacity="0.45" d="M181.4 246.05C183.05 247.61 185.27 248.57 187.7 248.57H218.3C220.73 248.57 222.95 247.61 224.6 246.05V240.59H181.4V246.05Z" fill="#FF8345"/>
<path d="M188.51 253.1H186.2C185.21 253.1 184.4 252.29 184.4 251.3V242.09" stroke="#43293A" stroke-width="3" stroke-miterlimit="10" stroke-linecap="round" stroke-linejoin="round" stroke-dasharray="5 5"/>
<path d="M221.6 248.27V251.3C221.6 252.29 220.79 253.1 219.8 253.1H191.6" stroke="#43293A" stroke-width="3" stroke-miterlimit="10" stroke-linecap="round" stroke-linejoin="round" stroke-dasharray="5 5"/>
<path d="M219.8 256.4H186.2C183.56 256.4 181.4 254.24 181.4 251.6V239.39H224.6V251.6C224.6 254.27 222.44 256.4 219.8 256.4Z" stroke="#43293A" stroke-width="10" stroke-miterlimit="10" stroke-linecap="round" stroke-linejoin="round"/>
<path d="M218.3 245.57H187.7C183.65 245.57 180.35 242.27 180.35 238.22V230.9H225.65V238.25C225.65 242.3 222.35 245.57 218.3 245.57Z" fill="#EDAB7A"/>
<path opacity="0.84" d="M180.35 235.7C187.13 236.09 194.3 236.3 202.04 236.3H203.96C211.67 236.3 218.87 236.09 225.65 235.7V230.9H180.35V235.7Z" fill="#EDAB7A"/>
<path d="M218.3 245.57H187.7C183.65 245.57 180.35 242.27 180.35 238.22V230.9H225.65V238.25C225.65 242.3 222.35 245.57 218.3 245.57Z" stroke="#43293A" stroke-width="10" stroke-miterlimit="10" stroke-linecap="round" stroke-linejoin="round"/>
<path d="M183.35 237.89V232.25H222.65V237.89C222.65 240.29 220.7 242.24 218.3 242.24H187.7C185.3 242.24 183.35 240.29 183.35 237.89Z" stroke="#43293A" stroke-width="3" stroke-miterlimit="10" stroke-linecap="round" stroke-linejoin="round" stroke-dasharray="5 5"/>
<path d="M255.8 278.24H150.2C146.21 278.24 143 275.03 143 271.04V196.04H263V271.04C263 275.03 259.79 278.24 255.8 278.24Z" stroke="#43293A" stroke-width="10" stroke-miterlimit="10" stroke-linecap="round" stroke-linejoin="round"/>
<path d="M150.2 273.44C148.88 273.44 147.8 272.36 147.8 271.04V200.84H258.2V271.04C258.2 272.36 257.12 273.44 255.8 273.44H150.2Z" stroke="#43293A" stroke-width="4" stroke-miterlimit="10" stroke-linecap="round" stroke-linejoin="round" stroke-dasharray="7 7"/>
<path d="M138.65 178.76L134.6 208.31C133.34 217.46 139.22 225.65 148.79 227.57C166.43 231.11 184.67 232.16 203 232.13C221.33 232.16 239.57 231.14 257.21 227.57C266.78 225.65 272.66 217.46 271.4 208.31L267.35 178.76C266.84 175.04 263.15 172.01 258.92 171.8C221.6 170.03 184.43 170.03 147.11 171.8C142.88 172.01 139.16 175.04 138.65 178.76Z" fill="#FF8345"/>
<path opacity="0.55" d="M271.4 208.31L267.35 178.76C266.84 175.04 263.15 172.01 258.92 171.8C221.6 170.03 184.43 170.03 147.11 171.8C142.88 172.01 139.19 175.04 138.68 178.76L134.6 208.31C133.34 217.46 139.22 225.65 148.79 227.57C166.43 231.11 184.67 232.16 203 232.13C221.33 232.16 239.57 231.14 257.21 227.57C266.75 225.65 272.63 217.46 271.4 208.31ZM257.18 227.66C241.76 230.9 224.87 232.4 203.96 232.4H202.01C181.1 232.4 164.21 230.9 148.79 227.66C140.66 225.95 135.56 218.75 136.64 210.56L140.72 179.45C141.05 176.9 143.72 174.74 146.66 174.59C165.38 173.66 184.31 173.18 202.97 173.18C221.63 173.18 240.59 173.66 259.28 174.59C262.22 174.74 264.89 176.93 265.22 179.45L269.3 210.56C270.44 218.75 265.31 225.95 257.18 227.66Z" fill="#FF8345"/>
<path opacity="0.45" d="M257.21 224.69C239.57 228.23 221.33 229.28 203 229.25C184.67 229.28 166.43 228.26 148.79 224.69C140.6 223.04 135.11 216.8 134.48 209.3C133.76 218.06 139.55 225.71 148.79 227.57C166.43 231.11 184.67 232.16 203 232.13C221.33 232.16 239.57 231.14 257.21 227.57C266.42 225.71 272.21 218.06 271.52 209.3C270.89 216.8 265.4 223.04 257.21 224.69Z" fill="#FF8345"/>
<path d="M138.65 178.76L134.6 208.31C133.34 217.46 139.22 225.65 148.79 227.57C166.43 231.11 184.67 232.16 203 232.13C221.33 232.16 239.57 231.14 257.21 227.57C266.78 225.65 272.66 217.46 271.4 208.31L267.35 178.76C266.84 175.04 263.15 172.01 258.92 171.8C221.6 170.03 184.43 170.03 147.11 171.8C142.88 172.01 139.16 175.04 138.65 178.76Z" stroke="#43293A" stroke-width="10" stroke-miterlimit="10" stroke-linecap="round" stroke-linejoin="round"/>
<path d="M202.04 227.3C181.49 227.3 164.87 225.89 149.75 222.83C142.7 221.42 138.44 215.69 139.37 208.94L143.42 179.39C143.6 178.13 145.25 176.69 147.32 176.57C165.8 175.7 184.55 175.25 203 175.25C221.45 175.25 240.17 175.7 258.68 176.57C260.78 176.66 262.4 178.13 262.58 179.39L266.63 208.94C267.56 215.72 263.3 221.42 256.25 222.83C241.13 225.89 224.51 227.3 203.96 227.3H202.04Z" stroke="#43293A" stroke-width="4" stroke-linecap="round" stroke-linejoin="round" stroke-dasharray="7.01 7.01"/>
<path d="M168.65 282.56C165.68 282.56 163.25 280.13 163.25 277.16V201.29H174.05V277.16C174.05 280.13 171.65 282.56 168.65 282.56Z" fill="#EDAB7A"/>
<path d="M174.05 201.29H163.25V205.19H174.05V201.29Z" fill="#43293A"/>
<path opacity="0.78" d="M174.05 222.26H163.25V227.66H174.05V222.26Z" fill="#EDAB7A"/>
<path d="M168.65 282.56C165.68 282.56 163.25 280.13 163.25 277.16V201.29H174.05V277.16C174.05 280.13 171.65 282.56 168.65 282.56Z" stroke="#43293A" stroke-width="10" stroke-miterlimit="10" stroke-linecap="round" stroke-linejoin="round"/>
<path d="M159.65 218.66V235.16H163.25V231.56V230.09V222.26H174.05V230.09V231.56V235.16H177.65V218.66H159.65Z" fill="white"/>
<path d="M174.74 218.66H162.62C161 218.66 159.68 219.98 159.68 221.6V232.22C159.68 233.84 161 235.16 162.62 235.16H163.28V231.56V227.66V222.26H174.08V227.66V231.56V235.16H174.74C176.36 235.16 177.68 233.84 177.68 232.22V221.6C177.65 219.98 176.36 218.66 174.74 218.66Z" stroke="#43293A" stroke-width="8" stroke-miterlimit="10" stroke-linecap="round" stroke-linejoin="round"/>
<path d="M168.65 214.46C169.561 214.46 170.3 213.721 170.3 212.81C170.3 211.899 169.561 211.16 168.65 211.16C167.739 211.16 167 211.899 167 212.81C167 213.721 167.739 214.46 168.65 214.46Z" fill="white"/>
<path d="M168.65 214.46C169.561 214.46 170.3 213.721 170.3 212.81C170.3 211.899 169.561 211.16 168.65 211.16C167.739 211.16 167 211.899 167 212.81C167 213.721 167.739 214.46 168.65 214.46Z" stroke="#43293A" stroke-width="4" stroke-miterlimit="10" stroke-linecap="round" stroke-linejoin="round"/>
<path d="M168.65 230.6C169.561 230.6 170.3 229.861 170.3 228.95C170.3 228.039 169.561 227.3 168.65 227.3C167.739 227.3 167 228.039 167 228.95C167 229.861 167.739 230.6 168.65 230.6Z" fill="white"/>
<path d="M168.65 231.05C169.561 231.05 170.3 230.311 170.3 229.4C170.3 228.489 169.561 227.75 168.65 227.75C167.739 227.75 167 228.489 167 229.4C167 230.311 167.739 231.05 168.65 231.05Z" stroke="#43293A" stroke-width="4" stroke-miterlimit="10" stroke-linecap="round" stroke-linejoin="round"/>
<path d="M168.65 252.41C169.561 252.41 170.3 251.671 170.3 250.76C170.3 249.849 169.561 249.11 168.65 249.11C167.739 249.11 167 249.849 167 250.76C167 251.671 167.739 252.41 168.65 252.41Z" fill="#AD5349"/>
<path d="M168.65 252.41C169.561 252.41 170.3 251.671 170.3 250.76C170.3 249.849 169.561 249.11 168.65 249.11C167.739 249.11 167 249.849 167 250.76C167 251.671 167.739 252.41 168.65 252.41Z" stroke="#43293A" stroke-width="4" stroke-miterlimit="10" stroke-linecap="round" stroke-linejoin="round"/>
<path d="M168.65 263.09C169.561 263.09 170.3 262.351 170.3 261.44C170.3 260.529 169.561 259.79 168.65 259.79C167.739 259.79 167 260.529 167 261.44C167 262.351 167.739 263.09 168.65 263.09Z" fill="#AD5349"/>
<path d="M168.65 263.09C169.561 263.09 170.3 262.351 170.3 261.44C170.3 260.529 169.561 259.79 168.65 259.79C167.739 259.79 167 260.529 167 261.44C167 262.351 167.739 263.09 168.65 263.09Z" stroke="#43293A" stroke-width="4" stroke-miterlimit="10" stroke-linecap="round" stroke-linejoin="round"/>
<path d="M168.65 230.6C167.99 230.6 167.45 230.06 167.45 229.4V219.83C167.45 219.17 167.99 218.63 168.65 218.63C169.31 218.63 169.85 219.17 169.85 219.83V229.4C169.85 230.09 169.34 230.6 168.65 230.6Z" fill="white"/>
<path d="M168.65 230.6C167.99 230.6 167.45 230.06 167.45 229.4V219.83C167.45 219.17 167.99 218.63 168.65 218.63C169.31 218.63 169.85 219.17 169.85 219.83V229.4C169.85 230.09 169.34 230.6 168.65 230.6Z" stroke="#43293A" stroke-width="4" stroke-miterlimit="10" stroke-linecap="round" stroke-linejoin="round"/>
<path d="M237.35 282.56C234.38 282.56 231.95 280.13 231.95 277.16V201.29H242.75V277.16C242.75 280.13 240.32 282.56 237.35 282.56Z" fill="#EDAB7A"/>
<path opacity="0.78" d="M242.39 222.35H231.59V227.75H242.39V222.35Z" fill="#EDAB7A"/>
<path d="M237.35 282.56C234.38 282.56 231.95 280.13 231.95 277.16V201.29H242.75V277.16C242.75 280.13 240.32 282.56 237.35 282.56Z" stroke="#43293A" stroke-width="10" stroke-miterlimit="10" stroke-linecap="round" stroke-linejoin="round"/>
<path d="M228.35 218.66V235.16H231.95V231.56V230.09V222.26H242.75V230.09V231.56V235.16H246.35V218.66H228.35Z" fill="white"/>
<path d="M243.41 218.66H231.29C229.67 218.66 228.35 219.98 228.35 221.6V232.22C228.35 233.84 229.67 235.16 231.29 235.16H231.95V231.56V227.66V222.26H242.75V227.66V231.56V235.16H243.41C245.03 235.16 246.35 233.84 246.35 232.22V221.6C246.35 219.98 245.03 218.66 243.41 218.66Z" stroke="#43293A" stroke-width="8" stroke-miterlimit="10" stroke-linecap="round" stroke-linejoin="round"/>
<path d="M237.35 214.46C238.261 214.46 239 213.721 239 212.81C239 211.899 238.261 211.16 237.35 211.16C236.438 211.16 235.7 211.899 235.7 212.81C235.7 213.721 236.438 214.46 237.35 214.46Z" fill="white"/>
<path d="M237.35 214.46C238.261 214.46 239 213.721 239 212.81C239 211.899 238.261 211.16 237.35 211.16C236.438 211.16 235.7 211.899 235.7 212.81C235.7 213.721 236.438 214.46 237.35 214.46Z" stroke="#43293A" stroke-width="4" stroke-miterlimit="10" stroke-linecap="round" stroke-linejoin="round"/>
<path d="M237.35 230.6C238.261 230.6 239 229.861 239 228.95C239 228.039 238.261 227.3 237.35 227.3C236.438 227.3 235.7 228.039 235.7 228.95C235.7 229.861 236.438 230.6 237.35 230.6Z" fill="white"/>
<path d="M237.35 231.05C238.261 231.05 239 230.311 239 229.4C239 228.489 238.261 227.75 237.35 227.75C236.438 227.75 235.7 228.489 235.7 229.4C235.7 230.311 236.438 231.05 237.35 231.05Z" stroke="#43293A" stroke-width="4" stroke-miterlimit="10" stroke-linecap="round" stroke-linejoin="round"/>
<path d="M237.35 252.41C238.261 252.41 239 251.671 239 250.76C239 249.849 238.261 249.11 237.35 249.11C236.438 249.11 235.7 249.849 235.7 250.76C235.7 251.671 236.438 252.41 237.35 252.41Z" fill="#AD5349"/>
<path d="M237.35 252.41C238.261 252.41 239 251.671 239 250.76C239 249.849 238.261 249.11 237.35 249.11C236.438 249.11 235.7 249.849 235.7 250.76C235.7 251.671 236.438 252.41 237.35 252.41Z" stroke="#43293A" stroke-width="4" stroke-miterlimit="10" stroke-linecap="round" stroke-linejoin="round"/>
<path d="M237.35 263.09C238.261 263.09 239 262.351 239 261.44C239 260.529 238.261 259.79 237.35 259.79C236.438 259.79 235.7 260.529 235.7 261.44C235.7 262.351 236.438 263.09 237.35 263.09Z" fill="#AD5349"/>
<path d="M237.35 263.09C238.261 263.09 239 262.351 239 261.44C239 260.529 238.261 259.79 237.35 259.79C236.438 259.79 235.7 260.529 235.7 261.44C235.7 262.351 236.438 263.09 237.35 263.09Z" stroke="#43293A" stroke-width="4" stroke-miterlimit="10" stroke-linecap="round" stroke-linejoin="round"/>
<path d="M237.349 230.6C236.689 230.6 236.149 230.06 236.149 229.4V219.83C236.149 219.17 236.689 218.63 237.349 218.63C238.009 218.63 238.549 219.17 238.549 219.83V229.4C238.519 230.09 238.009 230.6 237.349 230.6Z" fill="white"/>
<path d="M237.349 230.6C236.689 230.6 236.149 230.06 236.149 229.4V219.83C236.149 219.17 236.689 218.63 237.349 218.63C238.009 218.63 238.549 219.17 238.549 219.83V229.4C238.519 230.09 238.009 230.6 237.349 230.6Z" stroke="#43293A" stroke-width="4" stroke-miterlimit="10" stroke-linecap="round" stroke-linejoin="round"/>
<path d="M242.75 201.29H231.95V205.19H242.75V201.29Z" fill="#43293A"/>
<path opacity="0.84" d="M203.75 239.75C204.694 239.75 205.46 238.984 205.46 238.04C205.46 237.096 204.694 236.33 203.75 236.33C202.805 236.33 202.04 237.096 202.04 238.04C202.04 238.984 202.805 239.75 203.75 239.75Z" fill="#EDAB7A"/>
<path d="M203.75 239.75C204.694 239.75 205.46 238.984 205.46 238.04C205.46 237.096 204.694 236.33 203.75 236.33C202.805 236.33 202.04 237.096 202.04 238.04C202.04 238.984 202.805 239.75 203.75 239.75Z" stroke="#43293A" stroke-width="4" stroke-miterlimit="10" stroke-linecap="round" stroke-linejoin="round"/>
<path d="M211.1 206.36C211.16 205.58 210.71 204.83 209.99 204.5C208.1 203.63 205.97 203.15 203.75 203.15C201.53 203.15 199.4 203.63 197.51 204.5C196.79 204.83 196.34 205.58 196.4 206.36C196.76 210.92 199.13 214.91 202.64 217.4C203.3 217.88 204.17 217.88 204.83 217.4C208.37 214.91 210.74 210.92 211.1 206.36Z" fill="#F7CFB5"/>
<path opacity="0.75" d="M204.86 214.1C204.2 214.58 203.33 214.58 202.67 214.1C199.7 212 197.57 208.82 196.76 205.16C196.52 205.49 196.4 205.91 196.43 206.36C196.79 210.92 199.16 214.91 202.67 217.4C203.33 217.88 204.2 217.88 204.86 217.4C208.37 214.88 210.77 210.92 211.1 206.36C211.13 205.94 211.01 205.52 210.77 205.16C209.96 208.85 207.8 212 204.86 214.1Z" fill="#F7CFB5"/>
<path d="M211.1 206.36C211.16 205.58 210.71 204.83 209.99 204.5C208.1 203.63 205.97 203.15 203.75 203.15C201.53 203.15 199.4 203.63 197.51 204.5C196.79 204.83 196.34 205.58 196.4 206.36C196.76 210.92 199.13 214.91 202.64 217.4C203.3 217.88 204.17 217.88 204.83 217.4C208.37 214.91 210.74 210.92 211.1 206.36Z" stroke="#43293A" stroke-width="5" stroke-miterlimit="10" stroke-linecap="round" stroke-linejoin="round"/>
<path d="M200.48 205.97C201.53 205.67 202.64 205.55 203.75 205.55C204.86 205.55 205.97 205.7 207.02 205.97C208.01 206.24 208.61 207.26 208.37 208.25C208.07 209.42 207.62 210.53 207.02 211.58" stroke="#43293A" stroke-width="3" stroke-miterlimit="10" stroke-linecap="round" stroke-linejoin="round"/>
</g>
<rect x="50" y="50" width="306" height="306" rx="7" stroke="#1B5C2E" stroke-width="6"/>
</g>
<defs>
<filter id="filter0_d_51_1552" x="0.599998" y="0.599998" width="436.8" height="436.8" filterUnits="userSpaceOnUse" color-interpolation-filters="sRGB">
<feFlood flood-opacity="0" result="BackgroundImageFix"/>
<feColorMatrix in="SourceAlpha" type="matrix" values="0 0 0 0 0 0 0 0 0 0 0 0 0 0 0 0 0 0 127 0" result="hardAlpha"/>
<feOffset dx="16" dy="16"/>
<feGaussianBlur stdDeviation="31.2"/>
<feComposite in2="hardAlpha" operator="out"/>
<feColorMatrix type="matrix" values="0 0 0 0 0 0 0 0 0 0 0 0 0 0 0 0 0 0 0.25 0"/>
<feBlend mode="normal" in2="BackgroundImageFix" result="effect1_dropShadow_51_1552"/>
<feBlend mode="normal" in="SourceGraphic" in2="effect1_dropShadow_51_1552" result="shape"/>
</filter>
<clipPath id="clip0_51_1552">
<rect x="53" y="53" width="300" height="300" rx="4" fill="white"/>
</clipPath>
</defs>
</svg>
