<svg width="438" height="438" viewBox="0 0 438 438" fill="none" xmlns="http://www.w3.org/2000/svg">
<g filter="url(#filter0_d_50_1417)">
<g clip-path="url(#clip0_50_1417)">
<rect x="53" y="53" width="300" height="300" rx="4" fill="white"/>
<path d="M325.94 252.89H81.71C80.21 252.89 79.01 251.69 79.01 250.19C79.01 248.69 80.21 247.49 81.71 247.49H325.97C327.47 247.49 328.67 248.69 328.67 250.19C328.64 251.69 327.44 252.89 325.94 252.89Z" fill="#444E59"/>
<path d="M217.46 247.34H175.22V249.86H217.46V247.34Z" fill="#444E59"/>
<path d="M246.8 230.87H147.14C145.16 230.87 143.54 229.25 143.54 227.27V160.52C143.54 158.54 145.16 156.92 147.14 156.92H246.8C248.78 156.92 250.4 158.54 250.4 160.52V227.24C250.4 229.25 248.81 230.87 246.8 230.87Z" fill="#BBBFC2"/>
<path d="M244.066 218.204V163.694L150.286 163.694V218.204H244.066Z" fill="#28A8E0"/>
<path opacity="0.4" d="M247.04 230.87H231.41V202.43C231.41 200.15 233.24 198.32 235.52 198.32H247.04V230.87Z" fill="#848484"/>
<path opacity="0.4" d="M151.13 203.39H143.54V225.8C143.54 228.59 145.94 230.87 148.76 230.87H157.49V209.87C157.46 206.36 154.61 203.39 151.13 203.39Z" fill="#848484"/>
<path d="M247.1 230.87H147.26C145.28 230.87 143.66 229.25 143.66 227.27V160.52C143.66 158.54 145.28 156.92 147.26 156.92H247.1C249.08 156.92 250.7 158.54 250.7 160.52V227.24C250.7 229.25 249.08 230.87 247.1 230.87Z" stroke="#444E59" stroke-width="4" stroke-miterlimit="10" stroke-linecap="round" stroke-linejoin="round"/>
<path d="M243.945 218.203V163.693L150.435 163.693V218.203H243.945Z" stroke="#444E59" stroke-width="4" stroke-miterlimit="10" stroke-linecap="round" stroke-linejoin="round"/>
<path opacity="0.32" d="M225.77 215.57H174.23C173.06 215.57 172.13 214.61 172.13 213.47V176.69C172.13 175.52 173.09 174.59 174.23 174.59H225.77C226.94 174.59 227.87 175.55 227.87 176.69V213.44C227.87 214.61 226.94 215.57 225.77 215.57Z" fill="#848484"/>
<path d="M223.37 213.53H171.83C170.66 213.53 169.73 212.57 169.73 211.43V174.68C169.73 173.51 170.69 172.58 171.83 172.58H223.37C224.54 172.58 225.47 173.54 225.47 174.68V211.43C225.5 212.6 224.54 213.53 223.37 213.53Z" fill="#AFB1B2"/>
<path d="M223.37 213.53H171.83C170.66 213.53 169.73 212.57 169.73 211.43V174.68C169.73 173.51 170.69 172.58 171.83 172.58H223.37C224.54 172.58 225.47 173.54 225.47 174.68V211.43C225.5 212.6 224.54 213.53 223.37 213.53Z" stroke="#444E59" stroke-width="4" stroke-miterlimit="10" stroke-linecap="round" stroke-linejoin="round"/>
<path d="M209.75 247.34H184.61L187.73 230.87H206.63L209.75 247.34Z" fill="#AEAEAF"/>
<path opacity="0.32" d="M207.47 235.52L206.63 230.87H187.73L186.89 235.52H207.47Z" fill="#848484"/>
<path d="M209.75 247.34H184.61L187.73 230.87H206.63L209.75 247.34Z" stroke="#444E59" stroke-width="4" stroke-miterlimit="10" stroke-linecap="round" stroke-linejoin="round"/>
<path d="M217.46 247.34H175.22V249.86H217.46V247.34Z" stroke="#444E59" stroke-width="4" stroke-miterlimit="10" stroke-linecap="round" stroke-linejoin="round"/>
<path d="M197.03 225.17C198.057 225.17 198.89 224.337 198.89 223.31C198.89 222.283 198.057 221.45 197.03 221.45C196.003 221.45 195.17 222.283 195.17 223.31C195.17 224.337 196.003 225.17 197.03 225.17Z" fill="#444E59"/>
<path d="M219.14 209.75H167.6C166.43 209.75 165.5 208.79 165.5 207.65V170.87C165.5 169.7 166.46 168.77 167.6 168.77H219.14C220.31 168.77 221.24 169.73 221.24 170.87V207.62C221.27 208.79 220.31 209.75 219.14 209.75Z" fill="white"/>
<path d="M219.14 209.75H167.6C166.43 209.75 165.5 208.79 165.5 207.65V170.87C165.5 169.7 166.46 168.77 167.6 168.77H219.14C220.31 168.77 221.24 169.73 221.24 170.87V207.62C221.27 208.79 220.31 209.75 219.14 209.75Z" stroke="#444E59" stroke-width="4" stroke-miterlimit="10" stroke-linecap="round" stroke-linejoin="round"/>
<path d="M221.27 175.1H165.5V170.96C165.5 169.76 166.49 168.74 167.72 168.74H219.2C220.34 168.74 221.27 169.67 221.27 170.81V175.1Z" fill="#BBBFC2"/>
<path d="M221.27 175.1H165.5V170.96C165.5 169.76 166.49 168.74 167.72 168.74H219.2C220.34 168.74 221.27 169.67 221.27 170.81V175.1Z" stroke="#444E59" stroke-width="4" stroke-miterlimit="10" stroke-linecap="round" stroke-linejoin="round"/>
<path d="M170.87 172.94C171.417 172.94 171.86 172.497 171.86 171.95C171.86 171.403 171.417 170.96 170.87 170.96C170.323 170.96 169.88 171.403 169.88 171.95C169.88 172.497 170.323 172.94 170.87 172.94Z" fill="#444E59"/>
<path d="M174.14 172.94C174.687 172.94 175.13 172.497 175.13 171.95C175.13 171.403 174.687 170.96 174.14 170.96C173.593 170.96 173.15 171.403 173.15 171.95C173.15 172.497 173.593 172.94 174.14 172.94Z" fill="#444E59"/>
<path d="M177.38 172.94C177.927 172.94 178.37 172.497 178.37 171.95C178.37 171.403 177.927 170.96 177.38 170.96C176.833 170.96 176.39 171.403 176.39 171.95C176.39 172.497 176.833 172.94 177.38 172.94Z" fill="#444E59"/>
<path d="M216.02 186.08H170.33C170 186.08 169.73 185.81 169.73 185.48V179.09C169.73 178.76 170 178.49 170.33 178.49H216.02C216.35 178.49 216.62 178.76 216.62 179.09V185.48C216.62 185.81 216.35 186.08 216.02 186.08Z" fill="#6567C3"/>
<path opacity="0.2" d="M183.47 194.09H170.3C169.97 194.09 169.7 193.82 169.7 193.49V190.04C169.7 189.71 169.97 189.44 170.3 189.44H183.47C183.8 189.44 184.07 189.71 184.07 190.04V193.49C184.07 193.82 183.83 194.09 183.47 194.09Z" fill="#444E59"/>
<path opacity="0.2" d="M171.83 197.48H182.39" stroke="#444E59" stroke-width="4" stroke-miterlimit="10" stroke-linecap="round" stroke-linejoin="round"/>
<path opacity="0.2" d="M171.83 200.87H182.39" stroke="#444E59" stroke-width="4" stroke-miterlimit="10" stroke-linecap="round" stroke-linejoin="round"/>
<path opacity="0.2" d="M199.97 194.09H186.8C186.47 194.09 186.2 193.82 186.2 193.49V190.04C186.2 189.71 186.47 189.44 186.8 189.44H199.97C200.3 189.44 200.57 189.71 200.57 190.04V193.49C200.57 193.82 200.3 194.09 199.97 194.09Z" fill="#444E59"/>
<path opacity="0.2" d="M188.3 197.48H198.44" stroke="#444E59" stroke-width="4" stroke-miterlimit="10" stroke-linecap="round" stroke-linejoin="round"/>
<path opacity="0.2" d="M188.3 200.87H198.44" stroke="#444E59" stroke-width="4" stroke-miterlimit="10" stroke-linecap="round" stroke-linejoin="round"/>
<g opacity="0.2">
<path opacity="0.2" d="M216.44 201.29H203.27C202.94 201.29 202.67 201.02 202.67 200.69V190.07C202.67 189.74 202.94 189.47 203.27 189.47H216.44C216.77 189.47 217.04 189.74 217.04 190.07V200.69C217.04 201.02 216.77 201.29 216.44 201.29Z" fill="#444E59"/>
</g>
<g opacity="0.09">
<path opacity="0.09" d="M216.02 204.68H203.48C203 204.68 202.64 204.29 202.64 203.84C202.64 203.39 203.03 203 203.48 203H216.02C216.5 203 216.86 203.39 216.86 203.84C216.86 204.29 216.47 204.68 216.02 204.68Z" fill="#444E59"/>
</g>
<path d="M121.76 237.02H97.5802C97.2802 237.02 97.0102 237.11 96.8002 237.32L90.9502 242.42C90.4102 242.9 90.4102 243.74 90.9502 244.19L96.8002 249.38C97.0102 249.56 97.2802 249.74 97.5802 249.74H121.76C123.14 249.74 124.28 248.48 124.28 247.1V239.45C124.25 238.13 123.14 237.02 121.76 237.02ZM96.9202 244.79C96.1102 244.79 95.4202 244.13 95.4202 243.29C95.4202 242.45 96.0802 241.79 96.9202 241.79C97.7602 241.79 98.4202 242.45 98.4202 243.29C98.4202 244.13 97.7602 244.79 96.9202 244.79Z" fill="white"/>
<path d="M110.18 237.02H103.13V249.77H110.18V237.02Z" fill="#F09F54"/>
<path d="M117.23 237.02H110.18V249.77H117.23V237.02Z" fill="#ED8B3B"/>
<path d="M121.13 249.77H117.23V237.02H121.25C122.9 237.02 124.28 238.37 124.28 240.05V246.65C124.25 248.36 122.84 249.77 121.13 249.77Z" fill="#FF6C37"/>
<path opacity="0.4" d="M122.42 237.65C122.3 237.62 122.18 237.62 122.06 237.62H97.8802C97.5802 237.62 97.3102 237.71 97.1002 237.92L91.2502 243.02C90.7102 243.5 90.7102 244.34 91.2502 244.79L94.9102 248L98.8702 248.99C99.0502 249.05 99.2602 249.05 99.4702 249.05C99.8602 249.05 100.22 248.96 100.58 248.78L122.12 237.8C122.21 237.77 122.33 237.71 122.42 237.65ZM97.2202 245.39C96.4102 245.39 95.7202 244.73 95.7202 243.89C95.7202 243.05 96.3802 242.39 97.2202 242.39C98.0602 242.39 98.7202 243.05 98.7202 243.89C98.7202 244.73 98.0602 245.39 97.2202 245.39Z" fill="#848484"/>
<path d="M121.76 237.02H97.5802C97.2802 237.02 97.0102 237.11 96.8002 237.32L90.9502 242.42C90.4102 242.9 90.4102 243.74 90.9502 244.19L96.8002 249.38C97.0102 249.56 97.2802 249.74 97.5802 249.74H121.76C123.14 249.74 124.28 248.48 124.28 247.1V239.45C124.25 238.13 123.14 237.02 121.76 237.02ZM96.9202 244.79C96.1102 244.79 95.4202 244.13 95.4202 243.29C95.4202 242.45 96.0802 241.79 96.9202 241.79C97.7602 241.79 98.4202 242.45 98.4202 243.29C98.4202 244.13 97.7602 244.79 96.9202 244.79Z" stroke="#444E59" stroke-width="4" stroke-miterlimit="10" stroke-linecap="round" stroke-linejoin="round"/>
<path d="M110.18 237.02H103.13V249.77H110.18V237.02Z" stroke="#444E59" stroke-width="4" stroke-miterlimit="10" stroke-linecap="round" stroke-linejoin="round"/>
<path d="M117.23 237.02H110.18V249.77H117.23V237.02Z" stroke="#444E59" stroke-width="4" stroke-miterlimit="10" stroke-linecap="round" stroke-linejoin="round"/>
<path d="M121.13 249.77H117.23V237.02H121.25C122.9 237.02 124.28 238.37 124.28 240.05V246.65C124.25 248.36 122.84 249.77 121.13 249.77Z" stroke="#444E59" stroke-width="4" stroke-miterlimit="10" stroke-linecap="round" stroke-linejoin="round"/>
<path d="M115.52 224.9L93.9801 235.88C93.7101 236 93.5301 236.24 93.4101 236.51L90.5301 243.71C90.2601 244.37 90.6501 245.12 91.3401 245.3L98.8701 247.22C99.1401 247.28 99.4401 247.25 99.7101 247.13L121.25 236.15C122.48 235.52 122.96 234.02 122.33 232.82L118.85 226.01C118.22 224.75 116.72 224.27 115.52 224.9Z" fill="white"/>
<path d="M111.463 226.955L105.183 230.159L110.909 241.383L117.189 238.179L111.463 226.955Z" fill="#8D91DB"/>
<path d="M115.52 224.9L93.9801 235.88C93.7101 236 93.5301 236.24 93.4101 236.51L90.5301 243.71C90.2601 244.37 90.6501 245.12 91.3401 245.3L98.8701 247.22C99.1401 247.28 99.4401 247.25 99.7101 247.13L121.25 236.15C122.48 235.52 122.96 234.02 122.33 232.82L118.85 226.01C118.22 224.75 116.72 224.27 115.52 224.9Z" stroke="#444E59" stroke-width="4" stroke-miterlimit="10" stroke-linecap="round" stroke-linejoin="round"/>
<path d="M96.26 243.53C97.221 243.53 98 242.751 98 241.79C98 240.829 97.221 240.05 96.26 240.05C95.299 240.05 94.52 240.829 94.52 241.79C94.52 242.751 95.299 243.53 96.26 243.53Z" fill="#444E59"/>
<path d="M105.169 230.176L98.8889 233.38L104.616 244.604L110.896 241.4L105.169 230.176Z" fill="#BECCD5" stroke="#444E59" stroke-width="4" stroke-miterlimit="10" stroke-linecap="round" stroke-linejoin="round"/>
<path d="M105.169 230.176L98.8889 233.38L104.616 244.604L110.896 241.4L105.169 230.176Z" stroke="#444E59" stroke-width="4" stroke-miterlimit="10" stroke-linecap="round" stroke-linejoin="round"/>
<path d="M111.463 226.955L105.183 230.159L110.909 241.383L117.189 238.179L111.463 226.955Z" stroke="#444E59" stroke-width="4" stroke-miterlimit="10" stroke-linecap="round" stroke-linejoin="round"/>
<path d="M120.77 236.36L117.17 238.19L111.44 226.97L115.04 225.14C116.51 224.39 118.31 224.96 119.09 226.46L122.09 232.34C122.84 233.81 122.24 235.61 120.77 236.36Z" fill="#6567C3"/>
<path d="M120.77 236.36L117.17 238.19L111.44 226.97L115.04 225.14C116.51 224.39 118.31 224.96 119.09 226.46L122.09 232.34C122.84 233.81 122.24 235.61 120.77 236.36Z" stroke="#444E59" stroke-width="4" stroke-miterlimit="10" stroke-linecap="round" stroke-linejoin="round"/>
<path d="M151.1 249.86H130.91C129.26 249.86 127.91 248.51 127.91 246.86V206.39C127.91 204.74 129.26 203.39 130.91 203.39H151.1C152.75 203.39 154.1 204.74 154.1 206.39V246.86C154.1 248.54 152.75 249.86 151.1 249.86Z" fill="white"/>
<path d="M154.52 217.34H127.91V206.33C127.91 204.71 129.23 203.39 130.85 203.39H151.4C153.11 203.39 154.49 204.8 154.49 206.48V217.34H154.52Z" fill="#6567C3"/>
<path d="M151.1 249.86H130.91C129.26 249.86 127.91 248.51 127.91 246.86V206.39C127.91 204.74 129.26 203.39 130.91 203.39H151.1C152.75 203.39 154.1 204.74 154.1 206.39V246.86C154.1 248.54 152.75 249.86 151.1 249.86Z" stroke="#444E59" stroke-width="4" stroke-miterlimit="10" stroke-linecap="round" stroke-linejoin="round"/>
<path d="M151.13 249.86H131C129.29 249.86 127.88 248.45 127.88 246.74V240.98H154.1V246.89C154.1 248.54 152.75 249.86 151.13 249.86Z" fill="#BBBFC2"/>
<path d="M151.19 249.86H131C129.29 249.86 127.88 248.45 127.88 246.74V240.98H154.1V246.95C154.1 248.57 152.78 249.86 151.19 249.86Z" stroke="#444E59" stroke-width="4" stroke-miterlimit="10" stroke-linecap="round" stroke-linejoin="round"/>
<path d="M141.2 246.74C142.028 246.74 142.7 246.068 142.7 245.24C142.7 244.412 142.028 243.74 141.2 243.74C140.372 243.74 139.7 244.412 139.7 245.24C139.7 246.068 140.372 246.74 141.2 246.74Z" fill="#444E59"/>
<path opacity="0.3" d="M133.82 221.99H148.61" stroke="#444E59" stroke-width="4" stroke-miterlimit="10" stroke-linecap="round" stroke-linejoin="round"/>
<path opacity="0.3" d="M136.76 226.64H146.06" stroke="#444E59" stroke-width="4" stroke-miterlimit="10" stroke-linecap="round" stroke-linejoin="round"/>
<path opacity="0.3" d="M133.82 230.87H148.61" stroke="#444E59" stroke-width="4" stroke-miterlimit="10" stroke-linecap="round" stroke-linejoin="round"/>
<path opacity="0.62" d="M141.2 214.79C143.056 214.79 144.56 213.285 144.56 211.43C144.56 209.574 143.056 208.07 141.2 208.07C139.344 208.07 137.84 209.574 137.84 211.43C137.84 213.285 139.344 214.79 141.2 214.79Z" fill="white"/>
<path d="M146.06 235.52C146.06 236.45 145.31 237.2 144.38 237.2H138.05C137.12 237.2 136.37 236.45 136.37 235.52C136.37 234.59 137.12 233.84 138.05 233.84H144.38C145.31 233.81 146.06 234.56 146.06 235.52Z" fill="#ED8B3B"/>
<path d="M307.46 244.37H234.77V200.69C234.77 199.4 235.82 198.35 237.11 198.35H305.15C306.41 198.35 307.43 199.37 307.43 200.63V244.37H307.46Z" fill="#BBBFC2"/>
<path d="M307.64 244.46H234.98V200.66C234.98 199.34 236.06 198.26 237.38 198.26H305.24C306.56 198.26 307.64 199.34 307.64 200.66V244.46Z" stroke="#444E59" stroke-width="4" stroke-miterlimit="10" stroke-linecap="round" stroke-linejoin="round"/>
<path opacity="0.71" d="M303.658 240.598V202.138H239.008V240.598H303.658Z" fill="#5D5D5D"/>
<path opacity="0.32" d="M254.81 233.27H249.23C248.9 233.27 248.63 233 248.63 232.67V213.56C248.63 213.23 248.9 212.96 249.23 212.96H254.81C255.14 212.96 255.41 213.23 255.41 213.56V232.7C255.41 233 255.14 233.27 254.81 233.27Z" fill="#848484"/>
<path opacity="0.32" d="M295.1 237.14H262.88C262.22 237.14 261.68 236.6 261.68 235.94V211.31C261.68 210.65 262.22 210.11 262.88 210.11H295.1C295.76 210.11 296.3 210.65 296.3 211.31V235.94C296.3 236.6 295.79 237.14 295.1 237.14Z" fill="#848484"/>
<path d="M303.601 240.416V202.286H239.011V240.416H303.601Z" stroke="#444E59" stroke-width="4" stroke-miterlimit="10" stroke-linecap="round" stroke-linejoin="round"/>
<path d="M315.56 244.46H227.03V247.28C227.03 248.6 228.11 249.68 229.43 249.68H313.16C314.48 249.68 315.56 248.6 315.56 247.28V244.46Z" fill="white"/>
<path opacity="0.8" d="M230.42 249.86H312.2C313.85 249.86 315.2 248.6 315.5 246.89H227.09C227.39 248.6 228.77 249.86 230.42 249.86Z" fill="#BBBFC2"/>
<path d="M315.56 244.46H227.03V247.28C227.03 248.6 228.11 249.68 229.43 249.68H313.16C314.48 249.68 315.56 248.6 315.56 247.28V244.46Z" stroke="#444E59" stroke-width="4" stroke-miterlimit="10" stroke-linecap="round" stroke-linejoin="round"/>
<path d="M253.79 211.43H247.04V218.18H253.79V211.43Z" fill="#F09F54"/>
<path d="M253.91 211.49H247.16V218.24H253.91V211.49Z" stroke="#444E59" stroke-width="4" stroke-miterlimit="10" stroke-linecap="round" stroke-linejoin="round"/>
<path d="M253.91 211.49H247.16V218.24H253.91V211.49Z" stroke="#444E59" stroke-width="4" stroke-miterlimit="10" stroke-linecap="round" stroke-linejoin="round"/>
<path d="M253.79 218.18H247.04V224.93H253.79V218.18Z" fill="#8D91DB"/>
<path d="M253.91 218.27H247.16V225.02H253.91V218.27Z" stroke="#444E59" stroke-width="4" stroke-miterlimit="10" stroke-linecap="round" stroke-linejoin="round"/>
<path d="M253.79 224.93H247.04V231.68H253.79V224.93Z" fill="#6567C3"/>
<path d="M253.91 225.02H247.16V231.77H253.91V225.02Z" stroke="#444E59" stroke-width="4" stroke-miterlimit="10" stroke-linecap="round" stroke-linejoin="round"/>
<path d="M293.15 235.07H260.9C260.24 235.07 259.7 234.53 259.7 233.87V209.24C259.7 208.58 260.24 208.04 260.9 208.04H293.15C293.81 208.04 294.35 208.58 294.35 209.24V233.87C294.35 234.56 293.81 235.07 293.15 235.07Z" fill="white"/>
<path d="M293.15 235.07H260.9C260.24 235.07 259.7 234.53 259.7 233.87V209.24C259.7 208.58 260.24 208.04 260.9 208.04H293.15C293.81 208.04 294.35 208.58 294.35 209.24V233.87C294.35 234.56 293.81 235.07 293.15 235.07Z" stroke="#444E59" stroke-width="4" stroke-miterlimit="10" stroke-linecap="round" stroke-linejoin="round"/>
<g opacity="0.3">
<g opacity="0.3">
<path opacity="0.3" d="M284.21 227.96V228.41H283.76" stroke="#444E59" stroke-width="2" stroke-linejoin="round"/>
<path opacity="0.3" d="M283.19 228.41H270.62" stroke="#444E59" stroke-width="2" stroke-linejoin="round" stroke-dasharray="2.86 2.86"/>
<path opacity="0.3" d="M270.32 228.41H269.87V227.96" stroke="#444E59" stroke-width="2" stroke-linejoin="round"/>
<path opacity="0.3" d="M269.87 227.33V215.63" stroke="#444E59" stroke-width="2" stroke-linejoin="round" stroke-dasharray="3 3"/>
<path opacity="0.3" d="M269.87 215.33V214.88H270.32" stroke="#444E59" stroke-width="2" stroke-linejoin="round"/>
<path opacity="0.3" d="M270.89 214.88H283.46" stroke="#444E59" stroke-width="2" stroke-linejoin="round" stroke-dasharray="2.86 2.86"/>
<path opacity="0.3" d="M283.76 214.88H284.21V215.33" stroke="#444E59" stroke-width="2" stroke-linejoin="round"/>
<path opacity="0.3" d="M284.21 215.93V227.66" stroke="#444E59" stroke-width="2" stroke-linejoin="round" stroke-dasharray="3 3"/>
</g>
</g>
<path d="M271.01 213.83H268.88V215.96H271.01V213.83Z" fill="white"/>
<path d="M270.89 213.74H268.79V215.84H270.89V213.74Z" stroke="#444E59" stroke-miterlimit="10" stroke-linejoin="round"/>
<path d="M271.01 227.33H268.88V229.46H271.01V227.33Z" fill="white"/>
<path d="M270.89 227.27H268.79V229.37H270.89V227.27Z" stroke="#444E59" stroke-miterlimit="10" stroke-linejoin="round"/>
<path d="M285.29 213.83H283.16V215.96H285.29V213.83Z" fill="white"/>
<path d="M285.26 213.74H283.16V215.84H285.26V213.74Z" stroke="#444E59" stroke-miterlimit="10" stroke-linejoin="round"/>
<path d="M285.29 227.33H283.16V229.46H285.29V227.33Z" fill="white"/>
<path d="M285.26 227.27H283.16V229.37H285.26V227.27Z" stroke="#444E59" stroke-miterlimit="10" stroke-linejoin="round"/>
<path d="M250.55 221.75L252.68 226.31L254.75 227.39L256.19 225.95L255.14 223.85L250.55 221.75Z" fill="white"/>
<path d="M250.55 221.75L252.68 226.31L254.75 227.39L256.19 225.95L255.14 223.85L250.55 221.75Z" stroke="#444E59" stroke-miterlimit="10" stroke-linejoin="round"/>
<path d="M253.25 224.9C253.564 224.9 253.82 224.645 253.82 224.33C253.82 224.015 253.564 223.76 253.25 223.76C252.935 223.76 252.68 224.015 252.68 224.33C252.68 224.645 252.935 224.9 253.25 224.9Z" fill="#444E59"/>
<path d="M250.55 221.75L252.92 224.12" stroke="#444E59" stroke-miterlimit="10" stroke-linecap="round" stroke-linejoin="round"/>
<path d="M256.199 225.926L254.756 227.369L255.796 228.408L257.238 226.966L256.199 225.926Z" fill="white"/>
<path d="M256.199 225.926L254.756 227.369L255.796 228.408L257.238 226.966L256.199 225.926Z" stroke="#444E59" stroke-miterlimit="10" stroke-linejoin="round"/>
</g>
<rect x="50" y="50" width="306" height="306" rx="7" stroke="#1B5C2E" stroke-width="6"/>
</g>
<defs>
<filter id="filter0_d_50_1417" x="0.599998" y="0.599998" width="436.8" height="436.8" filterUnits="userSpaceOnUse" color-interpolation-filters="sRGB">
<feFlood flood-opacity="0" result="BackgroundImageFix"/>
<feColorMatrix in="SourceAlpha" type="matrix" values="0 0 0 0 0 0 0 0 0 0 0 0 0 0 0 0 0 0 127 0" result="hardAlpha"/>
<feOffset dx="16" dy="16"/>
<feGaussianBlur stdDeviation="31.2"/>
<feComposite in2="hardAlpha" operator="out"/>
<feColorMatrix type="matrix" values="0 0 0 0 0 0 0 0 0 0 0 0 0 0 0 0 0 0 0.25 0"/>
<feBlend mode="normal" in2="BackgroundImageFix" result="effect1_dropShadow_50_1417"/>
<feBlend mode="normal" in="SourceGraphic" in2="effect1_dropShadow_50_1417" result="shape"/>
</filter>
<clipPath id="clip0_50_1417">
<rect x="53" y="53" width="300" height="300" rx="4" fill="white"/>
</clipPath>
</defs>
</svg>
