<svg width="438" height="438" viewBox="0 0 438 438" fill="none" xmlns="http://www.w3.org/2000/svg">
<g filter="url(#filter0_d_50_1244)">
<g clip-path="url(#clip0_50_1244)">
<path d="M353 53H53V353H353V53Z" fill="white"/>
<path d="M162.41 281.09C125.54 281.06 100.22 226.43 99.32 223.73C96.41 215.06 87.29 188.09 100.94 161.54C117.8 128.81 160.04 114.8 187.52 124.19C206.21 130.55 203.6 142.79 227.57 154.34C256.85 168.41 273.59 156.38 288.23 169.61C303.56 183.44 303.47 213.17 295.49 232.88C284.6 259.76 272.63 275.84 245.96 281.12C223.58 281.15 192.95 281.12 162.41 281.09Z" fill="#FFF4B0"/>
<path d="M124.37 281.15H268.34" stroke="#4E5A7D" stroke-width="6" stroke-miterlimit="10" stroke-linecap="round" stroke-linejoin="round"/>
<path d="M276.47 281.15H291.29" stroke="#4E5A7D" stroke-width="6" stroke-miterlimit="10" stroke-linecap="round" stroke-linejoin="round"/>
<path d="M108.02 281.15H118.4" stroke="#4E5A7D" stroke-width="6" stroke-miterlimit="10" stroke-linecap="round" stroke-linejoin="round"/>
<path d="M296.51 281.15H299.06" stroke="#4E5A7D" stroke-width="6" stroke-miterlimit="10" stroke-linecap="round" stroke-linejoin="round"/>
<g opacity="0.2">
<path opacity="0.2" d="M189.53 203.57V212.84H170.99" stroke="#592D2D" stroke-width="6" stroke-miterlimit="10" stroke-linecap="round" stroke-linejoin="round"/>
<path opacity="0.2" d="M208.1 212.84H189.53V203.57" stroke="#592D2D" stroke-width="6" stroke-miterlimit="10" stroke-linecap="round" stroke-linejoin="round"/>
<path opacity="0.2" d="M198.83 212.84H180.26V222.11H198.83V212.84Z" stroke="#592D2D" stroke-width="6" stroke-miterlimit="10" stroke-linecap="round" stroke-linejoin="round"/>
<path opacity="0.2" d="M194.81 231.38H189.53V222.11H208.1" stroke="#592D2D" stroke-width="6" stroke-miterlimit="10" stroke-linecap="round" stroke-linejoin="round"/>
<path opacity="0.2" d="M170.99 222.11H189.53V231.38H174.5" stroke="#592D2D" stroke-width="6" stroke-miterlimit="10" stroke-linecap="round" stroke-linejoin="round"/>
<path opacity="0.2" d="M164.66 212.84H180.26V222.11H170.99" stroke="#592D2D" stroke-width="6" stroke-miterlimit="10" stroke-linecap="round" stroke-linejoin="round"/>
<path opacity="0.2" d="M212.21 222.11H198.8V212.84H205.25" stroke="#592D2D" stroke-width="6" stroke-miterlimit="10" stroke-linecap="round" stroke-linejoin="round"/>
</g>
<path d="M151.97 269.06C155.946 269.06 159.17 263.11 159.17 255.77C159.17 248.43 155.946 242.48 151.97 242.48C147.994 242.48 144.77 248.43 144.77 255.77C144.77 263.11 147.994 269.06 151.97 269.06Z" stroke="#4E5A7D" stroke-width="6" stroke-miterlimit="10" stroke-linecap="round" stroke-linejoin="round"/>
<path d="M142.73 258.83H138.62C136.79 258.83 135.32 257.36 135.32 255.53V254.48C135.32 252.65 136.79 251.18 138.62 251.18H142.73V258.83Z" fill="white"/>
<path d="M142.73 258.83H138.62C136.79 258.83 135.32 257.36 135.32 255.53V254.48C135.32 252.65 136.79 251.18 138.62 251.18H142.73V258.83Z" stroke="#4E5A7D" stroke-width="6" stroke-miterlimit="10" stroke-linecap="round" stroke-linejoin="round"/>
<path d="M149.81 243.32H144.08C141.29 243.32 139.04 248.54 139.04 255.02C139.04 261.47 141.29 266.72 144.08 266.72C144.17 266.72 144.29 266.72 144.38 266.69H149.81V243.32Z" fill="#D16F6F"/>
<path d="M149.81 243.32H144.08C141.29 243.32 139.04 248.54 139.04 255.02C139.04 261.47 141.29 266.72 144.08 266.72C144.17 266.72 144.29 266.72 144.38 266.69H149.81V243.32Z" stroke="#4E5A7D" stroke-width="6" stroke-miterlimit="10" stroke-linecap="round" stroke-linejoin="round"/>
<path d="M174.26 228.89H158.18C150.38 228.89 144.05 240.59 144.05 255.02C144.05 269.45 150.38 281.15 158.18 281.15C158.45 281.15 158.75 281.12 159.02 281.09H174.26V228.89Z" fill="#E08484"/>
<path d="M174.26 228.89H158.18C150.38 228.89 144.05 240.59 144.05 255.02C144.05 269.45 150.38 281.15 158.18 281.15C158.45 281.15 158.75 281.12 159.02 281.09H174.26V228.89Z" fill="#E08484"/>
<path d="M174.26 228.89H158.18C150.38 228.89 144.05 240.59 144.05 255.02C144.05 269.45 150.38 281.15 158.18 281.15C158.45 281.15 158.75 281.12 159.02 281.09H174.26V228.89Z" fill="#E08484"/>
<path d="M149.27 275.27C151.7 278.93 154.82 281.12 158.18 281.12C158.45 281.12 158.75 281.09 159.02 281.06H174.26V275.27H149.27Z" fill="#D87171"/>
<path d="M149.12 234.95H174.26V228.86H158.18C154.73 228.89 151.55 231.17 149.12 234.95Z" fill="#E99697"/>
<path d="M174.26 228.89H158.18C150.38 228.89 144.05 240.59 144.05 255.02C144.05 269.45 150.38 281.15 158.18 281.15C158.45 281.15 158.75 281.12 159.02 281.09H174.26V228.89Z" stroke="#4E5A7D" stroke-width="6" stroke-miterlimit="10" stroke-linecap="round" stroke-linejoin="round"/>
<path d="M174.68 281.15C182.484 281.15 188.81 269.451 188.81 255.02C188.81 240.589 182.484 228.89 174.68 228.89C166.876 228.89 160.55 240.589 160.55 255.02C160.55 269.451 166.876 281.15 174.68 281.15Z" fill="#D87171"/>
<path d="M174.68 281.15C182.484 281.15 188.81 269.451 188.81 255.02C188.81 240.589 182.484 228.89 174.68 228.89C166.876 228.89 160.55 240.589 160.55 255.02C160.55 269.451 166.876 281.15 174.68 281.15Z" stroke="#4E5A7D" stroke-width="6" stroke-miterlimit="10" stroke-linecap="round" stroke-linejoin="round"/>
<path d="M174.68 261.14C176.204 261.14 177.44 258.4 177.44 255.02C177.44 251.64 176.204 248.9 174.68 248.9C173.156 248.9 171.92 251.64 171.92 255.02C171.92 258.4 173.156 261.14 174.68 261.14Z" fill="#4E5A7D"/>
<path d="M174.68 276.14C180.164 276.14 184.61 266.684 184.61 255.02C184.61 243.356 180.164 233.9 174.68 233.9C169.196 233.9 164.75 243.356 164.75 255.02C164.75 266.684 169.196 276.14 174.68 276.14Z" fill="#C46565"/>
<path d="M174.68 264.95C177.53 264.95 179.84 260.504 179.84 255.02C179.84 249.536 177.53 245.09 174.68 245.09C171.83 245.09 169.52 249.536 169.52 255.02C169.52 260.504 171.83 264.95 174.68 264.95Z" fill="#D16F6F"/>
<path d="M174.68 264.95C177.53 264.95 179.84 260.504 179.84 255.02C179.84 249.536 177.53 245.09 174.68 245.09C171.83 245.09 169.52 249.536 169.52 255.02C169.52 260.504 171.83 264.95 174.68 264.95Z" stroke="#4E5A7D" stroke-width="4" stroke-miterlimit="10" stroke-linecap="round" stroke-linejoin="round"/>
<path d="M174.68 261.14C176.204 261.14 177.44 258.4 177.44 255.02C177.44 251.64 176.204 248.9 174.68 248.9C173.156 248.9 171.92 251.64 171.92 255.02C171.92 258.4 173.156 261.14 174.68 261.14Z" stroke="#4E5A7D" stroke-width="6" stroke-miterlimit="10" stroke-linecap="round" stroke-linejoin="round"/>
<path d="M174.68 261.14C176.204 261.14 177.44 258.4 177.44 255.02C177.44 251.64 176.204 248.9 174.68 248.9C173.156 248.9 171.92 251.64 171.92 255.02C171.92 258.4 173.156 261.14 174.68 261.14Z" fill="#4E5A7D"/>
<path d="M174.68 276.14C180.164 276.14 184.61 266.684 184.61 255.02C184.61 243.356 180.164 233.9 174.68 233.9C169.196 233.9 164.75 243.356 164.75 255.02C164.75 266.684 169.196 276.14 174.68 276.14Z" stroke="#4E5A7D" stroke-width="4" stroke-miterlimit="10" stroke-linecap="round" stroke-linejoin="round"/>
<path d="M174.23 251.21C173.84 252.23 173.57 253.55 173.57 254.99C173.57 256.46 173.84 257.75 174.23 258.77C174.41 258.8 174.59 258.83 174.77 258.83H226.97V251.15H174.77C174.56 251.18 174.41 251.18 174.23 251.21Z" fill="white"/>
<path d="M174.23 251.21C173.84 252.23 173.57 253.55 173.57 254.99C173.57 256.46 173.84 257.75 174.23 258.77C174.41 258.8 174.59 258.83 174.77 258.83H226.97V251.15H174.77C174.56 251.18 174.41 251.18 174.23 251.21Z" stroke="#4E5A7D" stroke-width="6" stroke-miterlimit="10" stroke-linecap="round" stroke-linejoin="round"/>
<path d="M248.3 228.89H232.22C224.42 228.89 218.09 240.59 218.09 255.02C218.09 269.45 224.42 281.15 232.22 281.15C232.49 281.15 232.79 281.12 233.06 281.09H248.3V228.89Z" fill="#E08484"/>
<path d="M223.76 275.27C226.19 278.93 229.31 281.12 232.67 281.12C232.94 281.12 233.24 281.09 233.51 281.06H248.75V275.27H223.76Z" fill="#D87171"/>
<path d="M223.58 234.95H248.72V228.86H232.64C229.22 228.89 226.04 231.17 223.58 234.95Z" fill="#E99697"/>
<path d="M248.3 228.89H232.22C224.42 228.89 218.09 240.59 218.09 255.02C218.09 269.45 224.42 281.15 232.22 281.15C232.49 281.15 232.79 281.12 233.06 281.09H248.3V228.89Z" stroke="#4E5A7D" stroke-width="6" stroke-miterlimit="10" stroke-linecap="round" stroke-linejoin="round"/>
<path d="M248.75 281.15C256.554 281.15 262.88 269.451 262.88 255.02C262.88 240.589 256.554 228.89 248.75 228.89C240.946 228.89 234.62 240.589 234.62 255.02C234.62 269.451 240.946 281.15 248.75 281.15Z" fill="#E08484"/>
<path d="M248.75 281.15C256.554 281.15 262.88 269.451 262.88 255.02C262.88 240.589 256.554 228.89 248.75 228.89C240.946 228.89 234.62 240.589 234.62 255.02C234.62 269.451 240.946 281.15 248.75 281.15Z" fill="#D87171"/>
<path d="M248.75 281.15C256.554 281.15 262.88 269.451 262.88 255.02C262.88 240.589 256.554 228.89 248.75 228.89C240.946 228.89 234.62 240.589 234.62 255.02C234.62 269.451 240.946 281.15 248.75 281.15Z" stroke="#4E5A7D" stroke-width="6" stroke-miterlimit="10" stroke-linecap="round" stroke-linejoin="round"/>
<path d="M248.75 261.14C250.274 261.14 251.51 258.4 251.51 255.02C251.51 251.64 250.274 248.9 248.75 248.9C247.226 248.9 245.99 251.64 245.99 255.02C245.99 258.4 247.226 261.14 248.75 261.14Z" fill="#4E5A7D"/>
<path d="M248.75 276.95C254.234 276.95 258.68 267.131 258.68 255.02C258.68 242.908 254.234 233.09 248.75 233.09C243.266 233.09 238.82 242.908 238.82 255.02C238.82 267.131 243.266 276.95 248.75 276.95Z" fill="#C46565"/>
<path d="M248.75 276.95C254.234 276.95 258.68 267.131 258.68 255.02C258.68 242.908 254.234 233.09 248.75 233.09C243.266 233.09 238.82 242.908 238.82 255.02C238.82 267.131 243.266 276.95 248.75 276.95Z" stroke="#4E5A7D" stroke-width="4" stroke-miterlimit="10" stroke-linecap="round" stroke-linejoin="round"/>
<path d="M258.38 244.88H251.78C248.57 244.88 245.96 249.62 245.96 255.47C245.96 261.32 248.57 266.06 251.78 266.06C251.9 266.06 252.02 266.06 252.14 266.03H258.41V244.88H258.38Z" fill="#E08484"/>
<path d="M257.66 244.88H251.6C248.66 244.88 246.26 249.62 246.26 255.47C246.26 261.32 248.66 266.06 251.6 266.06C251.72 266.06 251.81 266.06 251.93 266.03H257.69V244.88H257.66Z" stroke="#4E5A7D" stroke-width="6" stroke-miterlimit="10" stroke-linecap="round" stroke-linejoin="round"/>
<path d="M257.81 266.06C260.61 266.06 262.88 261.319 262.88 255.47C262.88 249.621 260.61 244.88 257.81 244.88C255.01 244.88 252.74 249.621 252.74 255.47C252.74 261.319 255.01 266.06 257.81 266.06Z" fill="#E08484"/>
<path d="M257.54 266.06C260.489 266.06 262.88 261.319 262.88 255.47C262.88 249.621 260.489 244.88 257.54 244.88C254.591 244.88 252.2 249.621 252.2 255.47C252.2 261.319 254.591 266.06 257.54 266.06Z" stroke="#4E5A7D" stroke-width="6" stroke-miterlimit="10" stroke-linecap="round" stroke-linejoin="round"/>
<path d="M260.51 259.31C262.34 259.31 263.81 257.84 263.81 256.01V254.96C263.81 253.13 262.34 251.66 260.51 251.66C258.83 251.66 257.48 253.01 257.48 254.69V256.31C257.48 257.96 258.83 259.31 260.51 259.31Z" fill="white"/>
<path d="M260.51 259.31C262.34 259.31 263.81 257.84 263.81 256.01V254.96C263.81 253.13 262.34 251.66 260.51 251.66C258.83 251.66 257.48 253.01 257.48 254.69V256.31C257.48 257.96 258.83 259.31 260.51 259.31Z" stroke="#4E5A7D" stroke-width="6" stroke-miterlimit="10" stroke-linecap="round" stroke-linejoin="round"/>
<path d="M174.53 237.77H173.39V239.54H174.23H174.17C174.83 239.54 175.34 240.2 175.34 241.01C175.34 241.82 174.8 242.48 174.17 242.48C173.69 242.48 173.3 242.15 173.12 241.64" stroke="#4E5A7D" stroke-width="2" stroke-miterlimit="10" stroke-linecap="round" stroke-linejoin="round"/>
</g>
<rect x="50" y="50" width="306" height="306" rx="7" stroke="#1B5C2E" stroke-width="6" shape-rendering="crispEdges"/>
</g>
<defs>
<filter id="filter0_d_50_1244" x="0.599998" y="0.599998" width="436.8" height="436.8" filterUnits="userSpaceOnUse" color-interpolation-filters="sRGB">
<feFlood flood-opacity="0" result="BackgroundImageFix"/>
<feColorMatrix in="SourceAlpha" type="matrix" values="0 0 0 0 0 0 0 0 0 0 0 0 0 0 0 0 0 0 127 0" result="hardAlpha"/>
<feOffset dx="16" dy="16"/>
<feGaussianBlur stdDeviation="31.2"/>
<feComposite in2="hardAlpha" operator="out"/>
<feColorMatrix type="matrix" values="0 0 0 0 0 0 0 0 0 0 0 0 0 0 0 0 0 0 0.25 0"/>
<feBlend mode="normal" in2="BackgroundImageFix" result="effect1_dropShadow_50_1244"/>
<feBlend mode="normal" in="SourceGraphic" in2="effect1_dropShadow_50_1244" result="shape"/>
</filter>
<clipPath id="clip0_50_1244">
<rect x="53" y="53" width="300" height="300" rx="4" fill="white"/>
</clipPath>
</defs>
</svg>
