<svg width="438" height="438" viewBox="0 0 438 438" fill="none" xmlns="http://www.w3.org/2000/svg">
<g filter="url(#filter0_d_50_948)">
<g clip-path="url(#clip0_50_948)">
<path d="M353 53H53V353H353V53Z" fill="white"/>
<path d="M232.07 174.02C215.81 174.02 192.44 174.02 176.18 174.02C171.83 174.02 167.99 176.87 166.82 181.04C165.35 186.29 165.35 191.75 166.82 196.97C167.99 201.14 171.83 203.99 176.18 203.99H232.07C234.53 203.99 236.54 202.1 236.69 199.67C237.17 192.56 237.17 185.42 236.69 178.31C236.54 175.91 234.5 174.02 232.07 174.02Z" fill="#CB0000" stroke="#CB0000" stroke-width="8" stroke-miterlimit="10" stroke-linecap="round" stroke-linejoin="round"/>
<path d="M196.7 198.44C195.5 192.2 195.5 185.81 196.7 179.57C218.81 179.57 248.78 179.57 270.92 179.57C270.92 183.89 269.96 190.94 267.38 195.86C266.54 197.45 264.92 198.44 263.12 198.44H196.7Z" fill="#CB0000" stroke="#CB0000" stroke-width="8" stroke-miterlimit="10" stroke-linecap="round" stroke-linejoin="round"/>
<path d="M242.54 195.89H237.17V201.5H242.54V195.89Z" fill="#CB0000" stroke="#CB0000" stroke-width="8" stroke-miterlimit="10" stroke-linecap="round" stroke-linejoin="round"/>
<path d="M242.54 178.1H237.17V183.71H242.54V178.1Z" fill="#CB0000" stroke="#CB0000" stroke-width="8" stroke-miterlimit="10" stroke-linecap="round" stroke-linejoin="round"/>
<path d="M99.0801 212.6H149.36" stroke="#CB0000" stroke-width="8" stroke-miterlimit="10" stroke-linecap="round" stroke-linejoin="round"/>
<path d="M125.72 218.72H122.66C121.94 218.72 121.37 218.15 121.37 217.43V208.22C121.37 207.5 121.94 206.93 122.66 206.93H125.72C126.44 206.93 127.01 207.5 127.01 208.22V217.43C127.01 218.15 126.41 218.72 125.72 218.72Z" fill="#CB0000" stroke="#CB0000" stroke-width="8" stroke-miterlimit="10" stroke-linecap="round" stroke-linejoin="round"/>
<path d="M155.06 265.55L158.24 274.31" stroke="#CB0000" stroke-width="8" stroke-miterlimit="10" stroke-linecap="round" stroke-linejoin="round"/>
<path d="M151.91 245.24L146.3 247.31L122.18 181.1L130.94 177.92L146.66 221.12L151.91 245.24Z" fill="#CB0000" stroke="#CB0000" stroke-width="8" stroke-miterlimit="10" stroke-linecap="round" stroke-linejoin="round"/>
<path d="M153.122 254.385L149.373 255.75L153.005 265.729L156.754 264.365L153.122 254.385Z" fill="#CB0000" stroke="#CB0000" stroke-width="8" stroke-miterlimit="10" stroke-linecap="round" stroke-linejoin="round"/>
<path d="M150.86 256.1C154.157 256.1 156.83 253.427 156.83 250.13C156.83 246.833 154.157 244.16 150.86 244.16C147.563 244.16 144.89 246.833 144.89 250.13C144.89 253.427 147.563 256.1 150.86 256.1Z" fill="#CB0000" stroke="#CB0000" stroke-width="8" stroke-miterlimit="10" stroke-linecap="round" stroke-linejoin="round"/>
<path d="M96.5303 245.24L102.17 247.31L126.26 181.1L117.53 177.92L101.78 221.12L96.5303 245.24Z" fill="#CB0000" stroke="#CB0000" stroke-width="8" stroke-miterlimit="10" stroke-linecap="round" stroke-linejoin="round"/>
<path d="M95.3186 254.391L91.6865 264.371L95.4359 265.735L99.068 255.756L95.3186 254.391Z" fill="#CB0000" stroke="#CB0000" stroke-width="8" stroke-miterlimit="10" stroke-linecap="round" stroke-linejoin="round"/>
<path d="M93.3802 265.55L90.2002 274.31" stroke="#CB0000" stroke-width="8" stroke-miterlimit="10" stroke-linecap="round" stroke-linejoin="round"/>
<path d="M97.6101 256.1C100.907 256.1 103.58 253.427 103.58 250.13C103.58 246.833 100.907 244.16 97.6101 244.16C94.313 244.16 91.6401 246.833 91.6401 250.13C91.6401 253.427 94.313 256.1 97.6101 256.1Z" fill="#CB0000" stroke="#CB0000" stroke-width="8" stroke-miterlimit="10" stroke-linecap="round" stroke-linejoin="round"/>
<path d="M128.87 196.46C125.78 196.46 122.66 196.46 119.57 196.46C118.07 196.46 116.63 195.32 116.27 193.82C114.62 186.86 113.48 179.81 113.6 172.85C113.66 171.08 115.37 169.52 117.14 169.52C121.88 169.52 126.62 169.52 131.36 169.52C133.13 169.52 134.84 171.08 134.9 172.85C135.02 179.81 133.88 186.86 132.23 193.82C131.81 195.32 130.37 196.46 128.87 196.46Z" fill="#CB0000" stroke="#CB0000" stroke-width="8" stroke-miterlimit="10" stroke-linecap="round" stroke-linejoin="round"/>
<path d="M129.41 141.29H118.79V164.87H129.41V141.29Z" fill="#CB0000" stroke="#CB0000" stroke-width="8" stroke-miterlimit="10" stroke-linecap="round" stroke-linejoin="round"/>
<path d="M126.95 164.87H121.31V169.52H126.95V164.87Z" fill="#CB0000" stroke="#CB0000" stroke-width="8" stroke-miterlimit="10" stroke-linecap="round" stroke-linejoin="round"/>
<path d="M96.0801 211.1H146.36" stroke="#340600" stroke-width="8" stroke-miterlimit="10" stroke-linecap="round" stroke-linejoin="round"/>
<path d="M122.72 217.22H119.66C118.94 217.22 118.37 216.65 118.37 215.93V206.72C118.37 206 118.94 205.43 119.66 205.43H122.72C123.44 205.43 124.01 206 124.01 206.72V215.93C124.01 216.65 123.41 217.22 122.72 217.22Z" fill="#BFBFBF"/>
<path d="M118.91 205.64C118.58 205.88 118.34 206.27 118.34 206.72V215.93C118.34 216.38 118.58 216.77 118.91 217.01C119.87 216.14 120.59 213.92 120.59 211.34C120.59 208.73 119.9 206.51 118.91 205.64Z" fill="white"/>
<path d="M122.72 217.22H119.66C118.94 217.22 118.37 216.65 118.37 215.93V206.72C118.37 206 118.94 205.43 119.66 205.43H122.72C123.44 205.43 124.01 206 124.01 206.72V215.93C124.01 216.65 123.41 217.22 122.72 217.22Z" stroke="#340600" stroke-width="6" stroke-miterlimit="10" stroke-linecap="round" stroke-linejoin="round"/>
<path d="M148.91 243.74L143.3 245.81L119.18 179.6L127.94 176.42L143.66 219.62L148.91 243.74Z" fill="white"/>
<path d="M143.66 219.62L127.94 176.42L125.54 177.29L140.96 219.62L146.21 243.74L142.97 244.94L143.3 245.81L148.91 243.74L143.66 219.62Z" fill="#BFBFBF"/>
<path d="M128.24 176.12L119.48 179.3L126.26 197.96C129.26 197.9 131.96 195.77 132.68 192.8C132.89 191.87 133.1 190.97 133.31 190.07L128.24 176.12Z" fill="#BFBFBF"/>
<path d="M152.06 264.05L155.24 272.81" stroke="#340600" stroke-width="8" stroke-miterlimit="10" stroke-linecap="round" stroke-linejoin="round"/>
<path d="M150.122 252.885L146.373 254.25L150.005 264.229L153.754 262.865L150.122 252.885Z" fill="#BFBFBF"/>
<path d="M148.91 243.74L143.3 245.81L119.18 179.6L127.94 176.42L143.66 219.62L148.91 243.74Z" stroke="#340600" stroke-width="8" stroke-miterlimit="10" stroke-linecap="round" stroke-linejoin="round"/>
<path d="M150.122 252.885L146.373 254.25L150.005 264.229L153.754 262.865L150.122 252.885Z" stroke="#340600" stroke-width="8" stroke-miterlimit="10" stroke-linecap="round" stroke-linejoin="round"/>
<path d="M147.86 254.6C151.157 254.6 153.83 251.927 153.83 248.63C153.83 245.333 151.157 242.66 147.86 242.66C144.563 242.66 141.89 245.333 141.89 248.63C141.89 251.927 144.563 254.6 147.86 254.6Z" fill="white"/>
<path d="M149.39 246.17C146.3 247.31 144.68 250.73 145.82 253.85C145.88 254.03 145.94 254.18 146.03 254.33C147.26 254.72 148.61 254.72 149.9 254.27C152.99 253.13 154.61 249.71 153.47 246.59C153.41 246.41 153.35 246.26 153.26 246.11C152.06 245.69 150.71 245.69 149.39 246.17Z" fill="#BFBFBF"/>
<path d="M147.86 254.6C151.157 254.6 153.83 251.927 153.83 248.63C153.83 245.333 151.157 242.66 147.86 242.66C144.563 242.66 141.89 245.333 141.89 248.63C141.89 251.927 144.563 254.6 147.86 254.6Z" stroke="#340600" stroke-width="8" stroke-miterlimit="10" stroke-linecap="round" stroke-linejoin="round"/>
<path d="M93.5303 243.74L99.1703 245.81L123.26 179.6L114.53 176.42L98.7803 219.62L93.5303 243.74Z" fill="white"/>
<path d="M93.5303 243.74L99.1703 245.81L123.26 179.6L114.53 176.42L98.7803 219.62L93.5303 243.74Z" fill="white"/>
<path d="M114.53 176.42L114.2 177.29L120.56 179.6L96.77 244.94L99.17 245.81L123.26 179.6L114.53 176.42Z" fill="#BFBFBF"/>
<path d="M115.13 176.12L110.06 190.07C110.24 190.97 110.45 191.87 110.69 192.8C111.41 195.74 114.11 197.87 117.11 197.93L123.89 179.27L115.13 176.12Z" fill="#BFBFBF"/>
<path d="M93.5303 243.74L99.1703 245.81L123.26 179.6L114.53 176.42L98.7803 219.62L93.5303 243.74Z" stroke="#340600" stroke-width="8" stroke-miterlimit="10" stroke-linecap="round" stroke-linejoin="round"/>
<path d="M92.3186 252.891L88.6865 262.871L92.4359 264.235L96.068 254.256L92.3186 252.891Z" fill="#BFBFBF"/>
<path d="M92.3186 252.891L88.6865 262.871L92.4359 264.235L96.068 254.256L92.3186 252.891Z" stroke="#340600" stroke-width="8" stroke-miterlimit="10" stroke-linecap="round" stroke-linejoin="round"/>
<path d="M90.3802 264.05L87.2002 272.81" stroke="#340600" stroke-width="8" stroke-miterlimit="10" stroke-linecap="round" stroke-linejoin="round"/>
<path d="M100.568 248.83C100.677 245.535 98.0949 242.775 94.7998 242.665C91.5046 242.556 88.7444 245.138 88.6347 248.433C88.525 251.728 91.1073 254.488 94.4024 254.598C97.6976 254.708 100.458 252.126 100.568 248.83Z" fill="white"/>
<path d="M100.568 248.83C100.677 245.535 98.0949 242.775 94.7998 242.665C91.5046 242.556 88.7444 245.138 88.6347 248.433C88.525 251.728 91.1073 254.488 94.4024 254.598C97.6976 254.708 100.458 252.126 100.568 248.83Z" fill="white"/>
<path d="M100.22 250.67C100.79 249.11 100.67 247.49 100.01 246.11C96.9501 245.12 93.6501 246.71 92.5701 249.74C92.0001 251.3 92.1201 252.92 92.7801 254.3C95.8101 255.29 99.1101 253.7 100.22 250.67Z" fill="#BFBFBF"/>
<path d="M100.568 248.83C100.677 245.535 98.0949 242.775 94.7998 242.665C91.5046 242.556 88.7444 245.138 88.6347 248.433C88.525 251.728 91.1073 254.488 94.4024 254.598C97.6976 254.708 100.458 252.126 100.568 248.83Z" stroke="#340600" stroke-width="8" stroke-miterlimit="10" stroke-linecap="round" stroke-linejoin="round"/>
<path d="M125.87 194.96C122.78 194.96 119.66 194.96 116.57 194.96C115.07 194.96 113.63 193.82 113.27 192.32C111.62 185.36 110.48 178.31 110.6 171.35C110.66 169.58 112.37 168.02 114.14 168.02C118.88 168.02 123.62 168.02 128.36 168.02C130.13 168.02 131.84 169.58 131.9 171.35C132.02 178.31 130.88 185.36 129.23 192.32C128.81 193.82 127.37 194.96 125.87 194.96Z" fill="#BFBFBF"/>
<path d="M113.15 192.32C111.5 185.36 110.36 178.31 110.48 171.35C110.54 169.58 112.25 168.02 114.02 168.02C117.41 168.02 120.77 168.02 124.16 168.02C124.97 171.74 124.97 175.76 123.95 179.75C122.42 185.81 120.44 194.09 114.26 194.09C113.72 193.64 113.33 193.01 113.15 192.32Z" fill="white"/>
<path d="M125.87 194.96C122.78 194.96 119.66 194.96 116.57 194.96C115.07 194.96 113.63 193.82 113.27 192.32C111.62 185.36 110.48 178.31 110.6 171.35C110.66 169.58 112.37 168.02 114.14 168.02C118.88 168.02 123.62 168.02 128.36 168.02C130.13 168.02 131.84 169.58 131.9 171.35C132.02 178.31 130.88 185.36 129.23 192.32C128.81 193.82 127.37 194.96 125.87 194.96Z" stroke="#340600" stroke-width="8" stroke-miterlimit="10" stroke-linecap="round" stroke-linejoin="round"/>
<path d="M126.41 139.79H115.79V163.37H126.41V139.79Z" fill="#BFBFBF"/>
<path d="M118.79 139.79H115.79V163.37H118.79V139.79Z" fill="#BFBFBF"/>
<path d="M126.44 139.79H122.69V163.37H126.44V139.79Z" fill="#BFBFBF"/>
<path d="M126.41 139.79H115.79V163.37H126.41V139.79Z" stroke="#340600" stroke-width="8" stroke-miterlimit="10" stroke-linecap="round" stroke-linejoin="round"/>
<path d="M123.95 163.37H118.31V168.02H123.95V163.37Z" fill="#606060"/>
<path d="M123.95 163.37H118.31V168.02H123.95V163.37Z" stroke="#340600" stroke-width="8" stroke-miterlimit="10" stroke-linecap="round" stroke-linejoin="round"/>
<path d="M119.18 143.99V157.61" stroke="#340600" stroke-width="6" stroke-miterlimit="10" stroke-linecap="round" stroke-linejoin="round"/>
<path d="M121.67 184.55C123.41 184.55 124.82 183.14 124.82 181.4C124.82 179.66 123.41 178.25 121.67 178.25C119.93 178.25 118.52 179.66 118.52 181.4C118.52 183.14 119.93 184.55 121.67 184.55Z" fill="#606060"/>
<path d="M121.67 184.55C123.41 184.55 124.82 183.14 124.82 181.4C124.82 179.66 123.41 178.25 121.67 178.25C119.93 178.25 118.52 179.66 118.52 181.4C118.52 183.14 119.93 184.55 121.67 184.55Z" stroke="#340600" stroke-width="8" stroke-miterlimit="10" stroke-linecap="round" stroke-linejoin="round"/>
<path d="M230.57 170.42C214.31 170.42 190.94 170.42 174.68 170.42C170.33 170.42 166.49 173.27 165.32 177.44C163.85 182.69 163.85 188.15 165.32 193.37C166.49 197.54 170.33 200.39 174.68 200.39H230.57C233.03 200.39 235.04 198.5 235.19 196.07C235.67 188.96 235.67 181.82 235.19 174.71C235.04 172.31 233 170.42 230.57 170.42Z" fill="#1D4928"/>
<path d="M230.57 170.42C214.31 170.42 190.94 170.42 174.68 170.42C170.33 170.42 166.49 173.27 165.32 177.44C163.85 182.69 163.85 188.15 165.32 193.37C166.49 197.54 170.33 200.39 174.68 200.39H230.57C233.03 200.39 235.04 198.5 235.19 196.07C235.67 188.96 235.67 181.82 235.19 174.71C235.04 172.31 233 170.42 230.57 170.42Z" stroke="#340600" stroke-width="8" stroke-miterlimit="10" stroke-linecap="round" stroke-linejoin="round"/>
<path d="M230.57 170.42C214.31 170.42 190.94 170.42 174.68 170.42C170.33 170.42 166.49 173.27 165.32 177.44C163.85 182.69 163.85 188.15 165.32 193.37C166.49 197.54 170.33 200.39 174.68 200.39H230.57C233.03 200.39 235.04 198.5 235.19 196.07C235.67 188.96 235.67 181.82 235.19 174.71C235.04 172.31 233 170.42 230.57 170.42Z" stroke="#340600" stroke-width="8" stroke-miterlimit="10" stroke-linecap="round" stroke-linejoin="round"/>
<path d="M195.2 194.84C194 188.6 194 182.21 195.2 175.97C217.31 175.97 247.28 175.97 269.42 175.97C269.42 180.29 268.46 187.34 265.88 192.26C265.04 193.85 263.42 194.84 261.62 194.84H195.2Z" fill="#C4C4C4"/>
<path opacity="0.77" d="M267.47 175.97C267.17 180.2 266.15 185.75 264.02 189.86C263.18 191.45 261.56 192.44 259.76 192.44H194.78C194.9 193.25 195.02 194.06 195.17 194.87H261.59C263.39 194.87 265.01 193.88 265.85 192.29C268.43 187.37 269.39 180.32 269.39 176C268.76 175.97 268.13 175.97 267.47 175.97Z" fill="#C4C4C4"/>
<path d="M195.2 194.84C194 188.6 194 182.21 195.2 175.97C217.31 175.97 247.28 175.97 269.42 175.97C269.42 180.29 268.46 187.34 265.88 192.26C265.04 193.85 263.42 194.84 261.62 194.84H195.2V194.84Z" stroke="#340600" stroke-width="8" stroke-miterlimit="10" stroke-linecap="round" stroke-linejoin="round"/>
<path d="M269.15 180.11C269.3 178.61 269.39 177.17 269.39 175.97C247.28 175.97 217.31 175.97 195.17 175.97C194.9 177.35 194.72 178.73 194.57 180.11C217.22 180.11 246.35 180.11 269.15 180.11Z" fill="white"/>
<path d="M269.15 180.11C269.3 178.61 269.39 177.17 269.39 175.97C247.28 175.97 217.31 175.97 195.17 175.97C194.9 177.35 194.72 178.73 194.57 180.11C217.22 180.11 246.35 180.11 269.15 180.11Z" stroke="#340600" stroke-width="8" stroke-miterlimit="10" stroke-linecap="round" stroke-linejoin="round"/>
<path d="M197.39 180.71L193.22 194.84" stroke="#340600" stroke-width="8" stroke-miterlimit="10" stroke-linecap="round" stroke-linejoin="round"/>
<path d="M205.25 180.71L201.08 194.84" stroke="#340600" stroke-width="8" stroke-miterlimit="10" stroke-linecap="round" stroke-linejoin="round"/>
<path d="M213.08 180.71L208.91 194.84" stroke="#340600" stroke-width="8" stroke-miterlimit="10" stroke-linecap="round" stroke-linejoin="round"/>
<path d="M220.94 180.71L216.77 194.84" stroke="#340600" stroke-width="8" stroke-miterlimit="10" stroke-linecap="round" stroke-linejoin="round"/>
<path d="M228.8 180.71L224.63 194.84" stroke="#340600" stroke-width="8" stroke-miterlimit="10" stroke-linecap="round" stroke-linejoin="round"/>
<path d="M236.63 180.71L232.46 194.84" stroke="#340600" stroke-width="8" stroke-miterlimit="10" stroke-linecap="round" stroke-linejoin="round"/>
<path d="M244.49 180.71L240.32 194.84" stroke="#340600" stroke-width="8" stroke-miterlimit="10" stroke-linecap="round" stroke-linejoin="round"/>
<path d="M252.35 180.71L248.18 194.84" stroke="#340600" stroke-width="8" stroke-miterlimit="10" stroke-linecap="round" stroke-linejoin="round"/>
<path d="M260.18 180.71L256.01 194.84" stroke="#340600" stroke-width="8" stroke-miterlimit="10" stroke-linecap="round" stroke-linejoin="round"/>
<path d="M235.49 180.71C235.43 178.73 235.34 176.72 235.19 174.74C235.04 172.31 233 170.42 230.57 170.42C214.31 170.42 190.94 170.42 174.68 170.42C170.33 170.42 166.49 173.27 165.32 177.44C165.02 178.52 164.78 179.6 164.6 180.71H235.49Z" fill="#47A942"/>
<path d="M175.7 174.74C191.96 174.74 215.33 174.74 231.59 174.74C233.09 174.74 234.41 175.46 235.28 176.54C235.25 176.03 235.22 175.52 235.19 175.01C235.04 172.58 233 170.69 230.57 170.69C214.31 170.69 190.94 170.69 174.68 170.69C170.33 170.69 166.49 173.54 165.32 177.71C165.02 178.79 164.78 179.87 164.6 180.98H166.61C167.99 177.26 171.62 174.74 175.7 174.74Z" fill="#81C347"/>
<path d="M235.19 175.04C235.04 172.61 233 170.72 230.57 170.72C214.31 170.72 190.94 170.72 174.68 170.72C170.33 170.72 166.49 173.57 165.32 177.74C165.02 178.82 164.78 179.9 164.6 181.01H164.66C164.75 180.65 164.84 180.29 164.93 179.93C166.1 175.76 169.94 172.91 174.29 172.91C190.55 172.91 213.92 172.91 230.18 172.91C232.1 172.91 233.75 174.05 234.44 175.73C234.74 175.97 235.04 176.24 235.28 176.57C235.25 176.03 235.22 175.55 235.19 175.04Z" fill="#CADB2A"/>
<path d="M235.49 180.71C235.43 178.73 235.34 176.72 235.19 174.74C235.04 172.31 233 170.42 230.57 170.42C214.31 170.42 190.94 170.42 174.68 170.42C170.33 170.42 166.49 173.27 165.32 177.44C165.02 178.52 164.78 179.6 164.6 180.71H235.49Z" stroke="#340600" stroke-width="8" stroke-miterlimit="10" stroke-linecap="round" stroke-linejoin="round"/>
<path d="M235.19 196.1C235.34 193.94 235.43 191.75 235.49 189.59L233.87 188.57L229.4 191.42L224.93 188.57L220.46 191.42L215.99 188.57L211.52 191.42L207.05 188.57L202.58 191.42L198.11 188.57L193.64 191.42L189.17 188.57L184.7 191.42L180.23 188.57L175.76 191.42L171.29 188.57L166.82 191.42L164.51 189.95C164.69 191.12 164.93 192.26 165.26 193.4C166.43 197.57 170.27 200.42 174.62 200.42H230.51C233 200.39 235.04 198.5 235.19 196.1Z" fill="#47A942"/>
<path d="M235.25 189.41C235.19 190.55 235.13 191.69 235.07 192.83C234.92 195.26 232.88 197.15 230.45 197.15H174.53C170.27 197.15 166.49 194.39 165.23 190.37L164.54 189.92C164.72 191.09 164.96 192.23 165.29 193.37C166.46 197.54 170.3 200.39 174.65 200.39H230.54C233 200.39 235.01 198.5 235.16 196.07C235.31 193.91 235.4 191.72 235.46 189.56L235.25 189.41Z" fill="#26863F"/>
<path d="M235.19 196.1C235.34 193.94 235.43 191.75 235.49 189.59L233.87 188.57L229.4 191.42L224.93 188.57L220.46 191.42L215.99 188.57L211.52 191.42L207.05 188.57L202.58 191.42L198.11 188.57L193.64 191.42L189.17 188.57L184.7 191.42L180.23 188.57L175.76 191.42L171.29 188.57L166.82 191.42L164.51 189.95C164.69 191.12 164.93 192.26 165.26 193.4C166.43 197.57 170.27 200.42 174.62 200.42H230.51C233 200.39 235.04 198.5 235.19 196.1Z" stroke="#340600" stroke-width="8" stroke-miterlimit="10" stroke-linecap="round" stroke-linejoin="round"/>
<path d="M196.97 193.4C201.245 193.4 204.71 189.935 204.71 185.66C204.71 181.385 201.245 177.92 196.97 177.92C192.695 177.92 189.23 181.385 189.23 185.66C189.23 189.935 192.695 193.4 196.97 193.4Z" fill="#CCCC00"/>
<path d="M196.97 193.4C201.245 193.4 204.71 189.935 204.71 185.66C204.71 181.385 201.245 177.92 196.97 177.92C192.695 177.92 189.23 181.385 189.23 185.66C189.23 189.935 192.695 193.4 196.97 193.4Z" stroke="#340600" stroke-width="8" stroke-miterlimit="10" stroke-linecap="round" stroke-linejoin="round"/>
<path d="M241.04 192.29H235.67V197.9H241.04V192.29Z" fill="#245B34"/>
<path d="M241.04 192.29H235.67V197.9H241.04V192.29Z" stroke="#340600" stroke-width="8" stroke-miterlimit="10" stroke-linecap="round" stroke-linejoin="round"/>
<path d="M241.04 174.8H235.67V180.41H241.04V174.8Z" fill="#245B34"/>
<path d="M241.04 174.8H235.67V180.41H241.04V174.8Z" stroke="#340600" stroke-width="8" stroke-miterlimit="10" stroke-linecap="round" stroke-linejoin="round"/>
<path d="M189.53 187.31L201.74 179.81" stroke="#340600" stroke-width="8" stroke-miterlimit="10" stroke-linecap="round" stroke-linejoin="round"/>
<path d="M192.5 191.51L204.68 184.01" stroke="#340600" stroke-width="8" stroke-miterlimit="10" stroke-linecap="round" stroke-linejoin="round"/>
<path d="M320.96 159.44H170.84C168.08 159.44 165.83 157.19 165.83 154.43V138.98C165.83 136.22 168.08 133.97 170.84 133.97H320.96C323.72 133.97 325.97 136.22 325.97 138.98V154.43C325.97 157.22 323.72 159.44 320.96 159.44Z" fill="#CB0000" stroke="#CB0000" stroke-width="8" stroke-miterlimit="10" stroke-linecap="round" stroke-linejoin="round"/>
<path d="M317.24 155.6H167.12C164.36 155.6 162.11 153.35 162.11 150.59V135.14C162.11 132.38 164.36 130.13 167.12 130.13H317.24C320 130.13 322.25 132.38 322.25 135.14V150.59C322.25 153.35 320 155.6 317.24 155.6Z" fill="#FF9E03"/>
<path d="M317.24 155.6H167.12C164.36 155.6 162.11 153.35 162.11 150.59V135.14C162.11 132.38 164.36 130.13 167.12 130.13H317.24C320 130.13 322.25 132.38 322.25 135.14V150.59C322.25 153.35 320 155.6 317.24 155.6Z" stroke="#340600" stroke-width="8" stroke-miterlimit="10" stroke-linecap="round" stroke-linejoin="round"/>
<path d="M170.57 143.21H311.99" stroke="#340600" stroke-width="10" stroke-miterlimit="10" stroke-linecap="round" stroke-linejoin="round"/>
<path d="M311.75 130.13V135.26" stroke="#340600" stroke-width="3" stroke-miterlimit="10" stroke-linejoin="round"/>
<path d="M297.83 130.13V135.26" stroke="#340600" stroke-width="3" stroke-miterlimit="10" stroke-linejoin="round"/>
<path d="M301.49 130.13V132.8" stroke="#340600" stroke-width="3" stroke-miterlimit="10" stroke-linejoin="round"/>
<path d="M308.21 130.13V132.8" stroke="#340600" stroke-width="3" stroke-miterlimit="10" stroke-linejoin="round"/>
<path d="M304.85 130.13V133.85" stroke="#340600" stroke-width="3" stroke-miterlimit="10" stroke-linejoin="round"/>
<path d="M283.94 130.13V135.26" stroke="#340600" stroke-width="3" stroke-miterlimit="10" stroke-linejoin="round"/>
<path d="M287.6 130.13V132.8" stroke="#340600" stroke-width="3" stroke-miterlimit="10" stroke-linejoin="round"/>
<path d="M294.29 130.13V132.8" stroke="#340600" stroke-width="3" stroke-miterlimit="10" stroke-linejoin="round"/>
<path d="M290.93 130.13V133.85" stroke="#340600" stroke-width="3" stroke-miterlimit="10" stroke-linejoin="round"/>
<path d="M270.02 130.13V135.26" stroke="#340600" stroke-width="3" stroke-miterlimit="10" stroke-linejoin="round"/>
<path d="M273.68 130.13V132.8" stroke="#340600" stroke-width="3" stroke-miterlimit="10" stroke-linejoin="round"/>
<path d="M280.37 130.13V132.8" stroke="#340600" stroke-width="3" stroke-miterlimit="10" stroke-linejoin="round"/>
<path d="M277.01 130.13V133.85" stroke="#340600" stroke-width="3" stroke-miterlimit="10" stroke-linejoin="round"/>
<path d="M256.1 130.13V135.26" stroke="#340600" stroke-width="3" stroke-miterlimit="10" stroke-linejoin="round"/>
<path d="M259.76 130.13V132.8" stroke="#340600" stroke-width="3" stroke-miterlimit="10" stroke-linejoin="round"/>
<path d="M266.45 130.13V132.8" stroke="#340600" stroke-width="3" stroke-miterlimit="10" stroke-linejoin="round"/>
<path d="M263.09 130.13V133.85" stroke="#340600" stroke-width="3" stroke-miterlimit="10" stroke-linejoin="round"/>
<path d="M242.18 130.13V135.26" stroke="#340600" stroke-width="3" stroke-miterlimit="10" stroke-linejoin="round"/>
<path d="M245.84 130.13V132.8" stroke="#340600" stroke-width="3" stroke-miterlimit="10" stroke-linejoin="round"/>
<path d="M252.53 130.13V132.8" stroke="#340600" stroke-width="3" stroke-miterlimit="10" stroke-linejoin="round"/>
<path d="M249.2 130.13V133.85" stroke="#340600" stroke-width="3" stroke-miterlimit="10" stroke-linejoin="round"/>
<path d="M228.26 130.13V135.26" stroke="#340600" stroke-width="3" stroke-miterlimit="10" stroke-linejoin="round"/>
<path d="M231.92 130.13V132.8" stroke="#340600" stroke-width="3" stroke-miterlimit="10" stroke-linejoin="round"/>
<path d="M238.61 130.13V132.8" stroke="#340600" stroke-width="3" stroke-miterlimit="10" stroke-linejoin="round"/>
<path d="M235.28 130.13V133.85" stroke="#340600" stroke-width="3" stroke-miterlimit="10" stroke-linejoin="round"/>
<path d="M214.34 130.13V135.26" stroke="#340600" stroke-width="3" stroke-miterlimit="10" stroke-linejoin="round"/>
<path d="M218 130.13V132.8" stroke="#340600" stroke-width="3" stroke-miterlimit="10" stroke-linejoin="round"/>
<path d="M224.69 130.13V132.8" stroke="#340600" stroke-width="3" stroke-miterlimit="10" stroke-linejoin="round"/>
<path d="M221.36 130.13V133.85" stroke="#340600" stroke-width="3" stroke-miterlimit="10" stroke-linejoin="round"/>
<path d="M200.42 130.13V135.26" stroke="#340600" stroke-width="3" stroke-miterlimit="10" stroke-linejoin="round"/>
<path d="M204.08 130.13V132.8" stroke="#340600" stroke-width="3" stroke-miterlimit="10" stroke-linejoin="round"/>
<path d="M210.8 130.13V132.8" stroke="#340600" stroke-width="3" stroke-miterlimit="10" stroke-linejoin="round"/>
<path d="M207.44 130.13V133.85" stroke="#340600" stroke-width="3" stroke-miterlimit="10" stroke-linejoin="round"/>
<path d="M186.5 130.13V135.26" stroke="#340600" stroke-width="3" stroke-miterlimit="10" stroke-linejoin="round"/>
<path d="M190.16 130.13V132.8" stroke="#340600" stroke-width="3" stroke-miterlimit="10" stroke-linejoin="round"/>
<path d="M196.88 130.13V132.8" stroke="#340600" stroke-width="3" stroke-miterlimit="10" stroke-linejoin="round"/>
<path d="M193.52 130.13V133.85" stroke="#340600" stroke-width="3" stroke-miterlimit="10" stroke-linejoin="round"/>
<path d="M172.58 130.13V135.26" stroke="#340600" stroke-width="3" stroke-miterlimit="10" stroke-linejoin="round"/>
<path d="M176.24 130.13V132.8" stroke="#340600" stroke-width="3" stroke-miterlimit="10" stroke-linejoin="round"/>
<path d="M182.96 130.13V132.8" stroke="#340600" stroke-width="3" stroke-miterlimit="10" stroke-linejoin="round"/>
<path d="M179.6 130.13V133.85" stroke="#340600" stroke-width="3" stroke-miterlimit="10" stroke-linejoin="round"/>
<path d="M323.15 192.92L217.61 266.18C216.14 267.17 216.83 269.48 218.6 269.48H324.77C325.43 269.48 325.97 268.94 325.97 268.28V194.42C325.97 192.98 324.35 192.14 323.15 192.92ZM261.92 254.54L311 219.05V254.54H261.92Z" fill="#CB0000" stroke="#CB0000" stroke-width="8" stroke-miterlimit="10" stroke-linecap="round" stroke-linejoin="round"/>
<path d="M319.85 189.32L214.31 262.58C212.84 263.57 213.53 265.88 215.3 265.88H321.47C322.13 265.88 322.67 265.34 322.67 264.68V190.82C322.67 189.38 321.05 188.54 319.85 189.32ZM258.62 250.94L307.7 215.45V250.94H258.62Z" fill="#FF9E03"/>
<path d="M319.85 189.32L214.31 262.58C212.84 263.57 213.53 265.88 215.3 265.88H321.47C322.13 265.88 322.67 265.34 322.67 264.68V190.82C322.67 189.38 321.05 188.54 319.85 189.32ZM258.62 250.94L307.7 215.45V250.94H258.62Z" stroke="#340600" stroke-width="8" stroke-miterlimit="10" stroke-linecap="round" stroke-linejoin="round"/>
<path d="M316.34 265.82V260.87" stroke="#340600" stroke-width="3" stroke-miterlimit="10" stroke-linejoin="round"/>
<path d="M302.84 265.82V260.87" stroke="#340600" stroke-width="3" stroke-miterlimit="10" stroke-linejoin="round"/>
<path d="M306.38 265.82V263.24" stroke="#340600" stroke-width="3" stroke-miterlimit="10" stroke-linejoin="round"/>
<path d="M312.89 265.82V263.24" stroke="#340600" stroke-width="3" stroke-miterlimit="10" stroke-linejoin="round"/>
<path d="M309.62 265.82V262.22" stroke="#340600" stroke-width="3" stroke-miterlimit="10" stroke-linejoin="round"/>
<path d="M289.34 265.82V260.87" stroke="#340600" stroke-width="3" stroke-miterlimit="10" stroke-linejoin="round"/>
<path d="M292.88 265.82V263.24" stroke="#340600" stroke-width="3" stroke-miterlimit="10" stroke-linejoin="round"/>
<path d="M299.39 265.82V263.24" stroke="#340600" stroke-width="3" stroke-miterlimit="10" stroke-linejoin="round"/>
<path d="M296.12 265.82V262.22" stroke="#340600" stroke-width="3" stroke-miterlimit="10" stroke-linejoin="round"/>
<path d="M275.84 265.82V260.87" stroke="#340600" stroke-width="3" stroke-miterlimit="10" stroke-linejoin="round"/>
<path d="M279.38 265.82V263.24" stroke="#340600" stroke-width="3" stroke-miterlimit="10" stroke-linejoin="round"/>
<path d="M285.89 265.82V263.24" stroke="#340600" stroke-width="3" stroke-miterlimit="10" stroke-linejoin="round"/>
<path d="M282.62 265.82V262.22" stroke="#340600" stroke-width="3" stroke-miterlimit="10" stroke-linejoin="round"/>
<path d="M262.34 265.82V260.87" stroke="#340600" stroke-width="3" stroke-miterlimit="10" stroke-linejoin="round"/>
<path d="M265.88 265.82V263.24" stroke="#340600" stroke-width="3" stroke-miterlimit="10" stroke-linejoin="round"/>
<path d="M272.39 265.82V263.24" stroke="#340600" stroke-width="3" stroke-miterlimit="10" stroke-linejoin="round"/>
<path d="M269.12 265.82V262.22" stroke="#340600" stroke-width="3" stroke-miterlimit="10" stroke-linejoin="round"/>
<path d="M248.84 265.82V260.87" stroke="#340600" stroke-width="3" stroke-miterlimit="10" stroke-linejoin="round"/>
<path d="M252.38 265.82V263.24" stroke="#340600" stroke-width="3" stroke-miterlimit="10" stroke-linejoin="round"/>
<path d="M258.89 265.82V263.24" stroke="#340600" stroke-width="3" stroke-miterlimit="10" stroke-linejoin="round"/>
<path d="M255.62 265.82V262.22" stroke="#340600" stroke-width="3" stroke-miterlimit="10" stroke-linejoin="round"/>
<path d="M235.34 265.82V260.87" stroke="#340600" stroke-width="3" stroke-miterlimit="10" stroke-linejoin="round"/>
<path d="M238.88 265.82V263.24" stroke="#340600" stroke-width="3" stroke-miterlimit="10" stroke-linejoin="round"/>
<path d="M245.39 265.82V263.24" stroke="#340600" stroke-width="3" stroke-miterlimit="10" stroke-linejoin="round"/>
<path d="M242.12 265.82V262.22" stroke="#340600" stroke-width="3" stroke-miterlimit="10" stroke-linejoin="round"/>
<path d="M221.84 265.82V260.87" stroke="#340600" stroke-width="3" stroke-miterlimit="10" stroke-linejoin="round"/>
<path d="M225.38 265.82V263.24" stroke="#340600" stroke-width="3" stroke-miterlimit="10" stroke-linejoin="round"/>
<path d="M231.89 265.82V263.24" stroke="#340600" stroke-width="3" stroke-miterlimit="10" stroke-linejoin="round"/>
<path d="M228.62 265.82V262.22" stroke="#340600" stroke-width="3" stroke-miterlimit="10" stroke-linejoin="round"/>
<path d="M322.4 205.76H317.42" stroke="#340600" stroke-width="3" stroke-miterlimit="10" stroke-linejoin="round"/>
<path d="M322.401 202.19H319.791" stroke="#340600" stroke-width="3" stroke-miterlimit="10" stroke-linejoin="round"/>
<path d="M322.401 195.71H319.791" stroke="#340600" stroke-width="3" stroke-miterlimit="10" stroke-linejoin="round"/>
<path d="M322.401 198.95H318.771" stroke="#340600" stroke-width="3" stroke-miterlimit="10" stroke-linejoin="round"/>
<path d="M322.4 219.26H317.42" stroke="#340600" stroke-width="3" stroke-miterlimit="10" stroke-linejoin="round"/>
<path d="M322.401 215.69H319.791" stroke="#340600" stroke-width="3" stroke-miterlimit="10" stroke-linejoin="round"/>
<path d="M322.401 209.21H319.791" stroke="#340600" stroke-width="3" stroke-miterlimit="10" stroke-linejoin="round"/>
<path d="M322.401 212.45H318.771" stroke="#340600" stroke-width="3" stroke-miterlimit="10" stroke-linejoin="round"/>
<path d="M322.4 232.76H317.42" stroke="#340600" stroke-width="3" stroke-miterlimit="10" stroke-linejoin="round"/>
<path d="M322.401 229.19H319.791" stroke="#340600" stroke-width="3" stroke-miterlimit="10" stroke-linejoin="round"/>
<path d="M322.401 222.71H319.791" stroke="#340600" stroke-width="3" stroke-miterlimit="10" stroke-linejoin="round"/>
<path d="M322.401 225.95H318.771" stroke="#340600" stroke-width="3" stroke-miterlimit="10" stroke-linejoin="round"/>
<path d="M322.4 246.26H317.42" stroke="#340600" stroke-width="3" stroke-miterlimit="10" stroke-linejoin="round"/>
<path d="M322.401 242.69H319.791" stroke="#340600" stroke-width="3" stroke-miterlimit="10" stroke-linejoin="round"/>
<path d="M322.401 236.21H319.791" stroke="#340600" stroke-width="3" stroke-miterlimit="10" stroke-linejoin="round"/>
<path d="M322.401 239.45H318.771" stroke="#340600" stroke-width="3" stroke-miterlimit="10" stroke-linejoin="round"/>
<path d="M322.4 259.76H317.42" stroke="#340600" stroke-width="3" stroke-miterlimit="10" stroke-linejoin="round"/>
<path d="M322.401 256.19H319.791" stroke="#340600" stroke-width="3" stroke-miterlimit="10" stroke-linejoin="round"/>
<path d="M322.401 249.71H319.791" stroke="#340600" stroke-width="3" stroke-miterlimit="10" stroke-linejoin="round"/>
<path d="M322.401 252.95H318.771" stroke="#340600" stroke-width="3" stroke-miterlimit="10" stroke-linejoin="round"/>
<path d="M213.62 243.92H171.29C169.52 243.92 168.08 242.48 168.08 240.71V224.03C168.08 222.26 169.52 220.82 171.29 220.82H213.65C215.42 220.82 216.86 222.26 216.86 224.03V240.71C216.83 242.48 215.39 243.92 213.62 243.92Z" fill="#CB0000" stroke="#CB0000" stroke-width="8" stroke-miterlimit="10" stroke-linecap="round" stroke-linejoin="round"/>
<path d="M204.14 245.81H175.73C174.83 245.81 174.08 245.06 174.08 244.16V220.25C174.08 219.35 174.83 218.6 175.73 218.6H204.14C205.04 218.6 205.79 219.35 205.79 220.25V244.16C205.79 245.06 205.07 245.81 204.14 245.81Z" fill="#CB0000" stroke="#CB0000" stroke-width="8" stroke-miterlimit="10" stroke-linecap="round" stroke-linejoin="round"/>
<path d="M210.92 240.92H168.59C166.82 240.92 165.38 239.48 165.38 237.71V221.03C165.38 219.26 166.82 217.82 168.59 217.82H210.95C212.72 217.82 214.16 219.26 214.16 221.03V237.71C214.13 239.48 212.69 240.92 210.92 240.92Z" fill="white"/>
<path d="M202.88 240.92H171.68C169.91 240.92 168.47 239.48 168.47 237.71V221.03C168.47 219.26 169.91 217.82 171.68 217.82H202.88C204.65 217.82 206.09 219.26 206.09 221.03V237.71C206.09 239.48 204.65 240.92 202.88 240.92Z" fill="#BFBFBF"/>
<path d="M210.92 240.92H168.59C166.82 240.92 165.38 239.48 165.38 237.71V221.03C165.38 219.26 166.82 217.82 168.59 217.82H210.95C212.72 217.82 214.16 219.26 214.16 221.03V237.71C214.13 239.48 212.69 240.92 210.92 240.92Z" stroke="#340600" stroke-width="8" stroke-miterlimit="10" stroke-linecap="round" stroke-linejoin="round"/>
<path d="M201.44 242.81H173.03C172.13 242.81 171.38 242.06 171.38 241.16V217.25C171.38 216.35 172.13 215.6 173.03 215.6H201.44C202.34 215.6 203.09 216.35 203.09 217.25V241.16C203.09 242.06 202.37 242.81 201.44 242.81Z" fill="#06A0FF"/>
<path opacity="0.27" d="M201.44 242.81H173.03C172.13 242.81 171.38 242.06 171.38 241.16V240.77C171.38 239.87 172.13 239.12 173.03 239.12H201.44C202.34 239.12 203.09 239.87 203.09 240.77V241.16C203.09 242.06 202.37 242.81 201.44 242.81Z" fill="#06A0FF"/>
<path opacity="0.38" d="M201.44 219.68H173.03C172.13 219.68 171.38 218.93 171.38 218.03V217.64C171.38 216.74 172.13 215.99 173.03 215.99H201.44C202.34 215.99 203.09 216.74 203.09 217.64V218.03C203.09 218.93 202.37 219.68 201.44 219.68Z" fill="#06A0FF"/>
<path d="M201.44 242.81H173.03C172.13 242.81 171.38 242.06 171.38 241.16V217.25C171.38 216.35 172.13 215.6 173.03 215.6H201.44C202.34 215.6 203.09 216.35 203.09 217.25V241.16C203.09 242.06 202.37 242.81 201.44 242.81Z" stroke="#340600" stroke-width="8" stroke-miterlimit="10" stroke-linecap="round" stroke-linejoin="round"/>
<path opacity="0.58" d="M177.8 224.09H194.3" stroke="#340600" stroke-width="8" stroke-miterlimit="10" stroke-linecap="round" stroke-linejoin="round"/>
<path opacity="0.58" d="M177.8 229.37H184.7" stroke="#340600" stroke-width="8" stroke-miterlimit="10" stroke-linecap="round" stroke-linejoin="round"/>
</g>
<rect x="50" y="50" width="306" height="306" rx="7" stroke="#1B5C2E" stroke-width="6" shape-rendering="crispEdges"/>
</g>
<defs>
<filter id="filter0_d_50_948" x="0.599998" y="0.599998" width="436.8" height="436.8" filterUnits="userSpaceOnUse" color-interpolation-filters="sRGB">
<feFlood flood-opacity="0" result="BackgroundImageFix"/>
<feColorMatrix in="SourceAlpha" type="matrix" values="0 0 0 0 0 0 0 0 0 0 0 0 0 0 0 0 0 0 127 0" result="hardAlpha"/>
<feOffset dx="16" dy="16"/>
<feGaussianBlur stdDeviation="31.2"/>
<feComposite in2="hardAlpha" operator="out"/>
<feColorMatrix type="matrix" values="0 0 0 0 0 0 0 0 0 0 0 0 0 0 0 0 0 0 0.25 0"/>
<feBlend mode="normal" in2="BackgroundImageFix" result="effect1_dropShadow_50_948"/>
<feBlend mode="normal" in="SourceGraphic" in2="effect1_dropShadow_50_948" result="shape"/>
</filter>
<clipPath id="clip0_50_948">
<rect x="53" y="53" width="300" height="300" rx="4" fill="white"/>
</clipPath>
</defs>
</svg>
