<svg width="129" height="39" viewBox="0 0 129 39" fill="none" xmlns="http://www.w3.org/2000/svg">
<path d="M19.7812 37.6953C18.9688 38.2109 18.0625 38.4688 17.0625 38.4688C16.0781 38.4688 15.1641 38.2109 14.3203 37.6953C13.4609 38.2109 12.6719 38.4688 11.9531 38.4688C11.2344 38.4688 10.6562 38.4062 10.2188 38.2812C9.78125 38.1719 9.39844 38.0156 9.07031 37.8125C8.39844 37.4062 8.0625 36.8984 8.0625 36.2891C8.0625 35.9766 8.14844 35.7031 8.32031 35.4688C8.66406 35.7344 9.11719 35.8672 9.67969 35.8672C10.2578 35.8672 10.8359 35.7188 11.4141 35.4219C12.0078 35.125 12.4531 34.6641 12.75 34.0391V22.625C12.75 21.9062 12.6016 21.375 12.3047 21.0312C11.8359 20.4531 11.0312 19.8828 9.89062 19.3203C10.9531 18.8359 11.6406 18.4062 11.9531 18.0312C12.4844 17.4219 12.75 16.7344 12.75 15.9688V5.09375C12.2344 4.90625 11.6172 4.8125 10.8984 4.8125C10.1953 4.8125 9.45312 5 8.67188 5.375C7.89062 5.75 7.1875 6.29687 6.5625 7.01562C5.17188 8.64062 4.47656 10.7656 4.47656 13.3906C4.47656 14.9062 4.72656 16.0234 5.22656 16.7422C5.03906 17.1328 4.6875 17.3281 4.17188 17.3281C3.65625 17.3281 3.19531 17.2109 2.78906 16.9766C2.38281 16.7422 2.03125 16.4219 1.73438 16.0156C1.125 15.2031 0.820312 14.3281 0.820312 13.3906C0.820312 12.4531 0.992188 11.6562 1.33594 11C0.757812 10.3125 0.46875 9.53906 0.46875 8.67969C0.46875 7.80469 0.703125 7.08594 1.17188 6.52344C0.515625 5.82031 0.1875 4.875 0.1875 3.6875C0.1875 2.3125 0.820312 1.39062 2.08594 0.921875C2.46094 0.78125 2.78906 0.710938 3.07031 0.710938C3.60156 0.710938 4 0.828125 4.26562 1.0625C4.15625 1.4375 4.10156 1.70312 4.10156 1.85938C4.10156 2.48438 4.32031 2.79688 4.75781 2.79688C4.99219 2.79688 5.23438 2.76563 5.48438 2.70312L6.53906 2.39844C8.36719 1.91406 9.89062 1.67188 11.1094 1.67188C12.3281 1.67188 13.3984 1.9375 14.3203 2.46875C15.1172 1.9375 16.0234 1.67188 17.0391 1.67188C18.0547 1.67188 18.9766 1.9375 19.8047 2.46875C20.6953 1.9375 21.6172 1.67188 22.5703 1.67188C24.0859 1.67188 25.4141 1.82813 26.5547 2.14062L28.6406 2.70312C28.8906 2.76563 29.1328 2.79688 29.3672 2.79688C29.8047 2.79688 30.0234 2.48438 30.0234 1.85938C30.0234 1.70312 29.9688 1.4375 29.8594 1.0625C30.125 0.828125 30.4609 0.710938 30.8672 0.710938C31.2734 0.710938 31.6641 0.78125 32.0391 0.921875C32.4141 1.0625 32.7422 1.26563 33.0234 1.53125C33.6328 2.07812 33.9375 2.86719 33.9375 3.89844C33.9375 4.91406 33.6094 5.78906 32.9531 6.52344C33.4219 7.08594 33.6562 7.79688 33.6562 8.65625C33.6562 9.51562 33.3594 10.2969 32.7656 11C33.125 11.6406 33.3047 12.2812 33.3047 12.9219C33.3047 13.5625 33.2266 14.1406 33.0703 14.6562C32.9141 15.1719 32.6875 15.625 32.3906 16.0156C31.75 16.8906 30.9453 17.3281 29.9766 17.3281C29.4453 17.3281 29.0859 17.1328 28.8984 16.7422C29.3984 16.0234 29.6484 14.9453 29.6484 13.5078C29.6484 12.0547 29.4531 10.7969 29.0625 9.73438C28.6875 8.65625 28.1875 7.75 27.5625 7.01562C26.2969 5.54687 24.8047 4.8125 23.0859 4.8125C22.4297 4.8125 21.8594 4.90625 21.375 5.09375V15.9688C21.375 16.7344 21.5391 17.3047 21.8672 17.6797C22.3828 18.2891 23.1719 18.8359 24.2344 19.3203C23.0938 19.8828 22.3672 20.3438 22.0547 20.7031C21.6016 21.2656 21.375 21.9062 21.375 22.625V34.0391C21.6562 34.6641 22.0859 35.125 22.6641 35.4219C23.2578 35.7188 23.8438 35.8672 24.4219 35.8672C25 35.8672 25.4609 35.7344 25.8047 35.4688C25.9766 35.7031 26.0625 35.9766 26.0625 36.2891C26.0625 36.5859 25.9688 36.8672 25.7812 37.1328C25.6094 37.3984 25.3672 37.625 25.0547 37.8125C24.3359 38.25 23.4922 38.4688 22.5234 38.4688C21.5703 38.4688 20.6562 38.2109 19.7812 37.6953ZM15 31.7891C15.7812 31.4922 16.2109 30.4688 16.2891 28.7188C16.3828 26.9688 16.4297 24.5469 16.4297 21.4531C16.4297 18.3594 16.4219 16.3047 16.4062 15.2891C16.4062 14.2578 16.3984 13.4297 16.3828 12.8047C16.3359 10.9609 16.1562 9.85156 15.8438 9.47656C15.5469 9.08594 15.2656 8.82812 15 8.70312C15 14.1406 14.9062 17.2344 14.7188 17.9844C14.5 18.6094 13.9688 19.0547 13.125 19.3203C14.0625 19.6484 14.5938 20.0469 14.7188 20.5156C14.9062 21.2656 15 24.0078 15 28.7422V31.7891ZM58.8516 38.4688C56.6484 38.4688 55.4609 36.9453 55.2891 33.8984C54.4922 35.3359 53.4141 36.4766 52.0547 37.3203C50.7109 38.1641 49.2578 38.5859 47.6953 38.5859C46.1484 38.5859 44.8906 38.375 43.9219 37.9531C42.9531 37.5312 42.1484 36.9219 41.5078 36.125C40.2578 34.5625 39.6328 32.3438 39.6328 29.4688V28.0156C39.6328 26.2031 38.6797 24.8594 36.7734 23.9844C37.8984 23.4375 38.6172 22.9766 38.9297 22.6016C39.3984 22.0234 39.6328 21.375 39.6328 20.6562V17.4922C39.6328 16.1641 39.1797 15.4453 38.2734 15.3359C38.0078 15.3047 37.6719 15.2891 37.2656 15.2891C36.8594 15.2891 36.4844 15.4219 36.1406 15.6875C35.9219 15.3906 35.8125 15.0859 35.8125 14.7734C35.8125 14.4453 35.8906 14.0859 36.0469 13.6953C36.2188 13.2891 36.4766 12.9062 36.8203 12.5469C37.6328 11.7031 38.5781 11.2812 39.6562 11.2812C40.7344 11.2812 41.75 11.4609 42.7031 11.8203C43.3906 10.8359 44.2031 10.3438 45.1406 10.3438C46.75 10.3438 47.5547 11.1875 47.5547 12.875V28.1328C47.5547 31.1016 48.2422 32.8828 49.6172 33.4766C50.0547 33.6641 50.5391 33.7578 51.0703 33.7578C51.6172 33.7578 52.1094 33.6484 52.5469 33.4297C52.9844 33.1953 53.3672 32.8828 53.6953 32.4922C54.3047 31.7266 54.6953 30.6797 54.8672 29.3516V17.4922C54.8672 15.7109 54.1406 14.8203 52.6875 14.8203C52.1562 14.8203 51.7188 14.9531 51.375 15.2188C51.1562 14.9219 51.0469 14.6172 51.0469 14.3047C51.0469 13.9766 51.125 13.6406 51.2812 13.2969C51.4531 12.9375 51.7109 12.6094 52.0547 12.3125C52.8203 11.625 53.75 11.2812 54.8438 11.2812C55.9531 11.2812 56.9844 11.4609 57.9375 11.8203C58.625 10.8359 59.4375 10.3438 60.375 10.3438C61.9844 10.3438 62.7891 11.1875 62.7891 12.875V20.6562C62.7891 21.375 62.9297 21.9062 63.2109 22.25C63.7109 22.8594 64.5234 23.4375 65.6484 23.9844C63.7422 24.8594 62.7891 26.2031 62.7891 28.0156V34.0625C63.0859 35.2656 63.7344 35.8672 64.7344 35.8672C65.2656 35.8672 65.7031 35.7344 66.0469 35.4688C66.2656 35.7656 66.375 36.1406 66.375 36.5938C66.375 37.0312 66.1484 37.4531 65.6953 37.8594C65.2578 38.2656 64.5625 38.4688 63.6094 38.4688C62.6719 38.4688 61.7812 38.2188 60.9375 37.7188C60.3125 38.2188 59.6172 38.4688 58.8516 38.4688ZM57.0938 31.7891C58 31.4297 58.4766 29.7031 58.5234 26.6094C58.5234 25.9531 58.5234 25.2031 58.5234 24.3594C58.5234 23.5156 58.5156 22.7969 58.5 22.2031C58.5 21.5938 58.4922 21.0156 58.4766 20.4688C58.4141 18.5 58.2344 17.3281 57.9375 16.9531C57.6406 16.5625 57.3594 16.3047 57.0938 16.1797V31.7891ZM43.0781 23.9844L43.1484 20.8906C43.1484 19.5 43.1016 18.5781 43.0078 18.125C42.7422 16.9375 42.3672 16.2891 41.8828 16.1797V17.7031C41.8828 20.3438 41.8203 21.8984 41.6953 22.3672C41.5859 22.8203 41.3984 23.1641 41.1328 23.3984C40.8828 23.6172 40.5078 23.8125 40.0078 23.9844C40.9453 24.3125 41.4766 24.7109 41.6016 25.1797C41.7891 25.9297 41.8828 27.625 41.8828 30.2656V31.7891C42.3516 31.6797 42.7344 30.9844 43.0312 29.7031C43.1094 29.3438 43.1484 28.4688 43.1484 27.0781L43.0781 23.9844ZM73.7812 37.7188C73.0625 38.2188 72.2422 38.4688 71.3203 38.4688C70.4141 38.4688 69.7344 38.2656 69.2812 37.8594C68.8438 37.4531 68.625 37.0625 68.625 36.6875C68.625 36.1719 68.7344 35.7656 68.9531 35.4688C69.2969 35.7344 69.7344 35.8672 70.2656 35.8672C71.1719 35.8672 71.8203 35.3438 72.2109 34.2969V27.1016C72.2109 26.4141 72.0703 25.9141 71.7891 25.6016C71.3516 25.1172 70.5391 24.5859 69.3516 24.0078C70.4453 23.5078 71.1406 23.1094 71.4375 22.8125C71.9531 22.2969 72.2109 21.6641 72.2109 20.9141V7.64844C72.2109 5.86719 71.4844 4.97656 70.0312 4.97656C69.5 4.97656 69.0625 5.10938 68.7188 5.375C68.5 5.07812 68.3906 4.77344 68.3906 4.46094C68.3906 4.13281 68.4688 3.82031 68.625 3.52344C68.7969 3.22656 69.0547 2.95313 69.3984 2.70312C70.1328 2.17187 71.0625 1.90625 72.1875 1.90625C73.3125 1.90625 74.1875 1.97656 74.8125 2.11719C75.6719 1.03906 76.6406 0.5 77.7188 0.5C79.3281 0.5 80.1328 1.34375 80.1328 3.03125V22.6484L86.9062 16.3906C87.9375 15.3281 88.4531 14.5625 88.4531 14.0938C88.4531 13.625 88.1562 13.3906 87.5625 13.3906C86.9688 13.3906 86.4141 13.5391 85.8984 13.8359C85.7266 13.5547 85.6406 13.1953 85.6406 12.7578C85.6406 12.3047 85.875 11.8672 86.3438 11.4453C86.8125 11.0234 87.4766 10.8125 88.3359 10.8125C89.1953 10.8125 89.9531 11.0781 90.6094 11.6094C91.2188 11.0781 91.8828 10.8125 92.6016 10.8125C93.3203 10.8125 93.9453 11.0234 94.4766 11.4453C95.0078 11.0234 95.6328 10.8125 96.3516 10.8125C97.0703 10.8125 97.6641 11 98.1328 11.375C98.6172 11.75 98.8594 12.25 98.8594 12.875C98.8594 13.4531 98.7812 13.8516 98.625 14.0703C98.2031 13.6484 97.6797 13.4375 97.0547 13.4375C96.4453 13.4375 95.9453 13.5312 95.5547 13.7188C95.1797 13.8906 94.7656 14.1484 94.3125 14.4922C93.8594 14.8203 93.3594 15.2266 92.8125 15.7109L88.9219 19.0859L96.0703 33.1484C96.5078 34.0859 96.8906 34.7734 97.2188 35.2109C97.5625 35.6484 97.9922 35.8672 98.5078 35.8672C99.0391 35.8672 99.4766 35.7344 99.8203 35.4688C100.039 35.7656 100.148 36.1406 100.148 36.5938C100.148 37.0312 99.9219 37.4531 99.4688 37.8594C99.0312 38.2656 98.3281 38.4688 97.3594 38.4688C96.3906 38.4688 95.4531 38.2031 94.5469 37.6719C93.8125 38.2031 93 38.4688 92.1094 38.4688C91.2344 38.4688 90.4688 38.2344 89.8125 37.7656C89.2031 38.2344 88.5156 38.4688 87.75 38.4688C87 38.4688 86.3984 38.2891 85.9453 37.9297C85.4922 37.5547 85.2656 37.0859 85.2656 36.5234C85.2656 35.9609 85.3828 35.5781 85.6172 35.375C86.2266 35.8438 86.8359 35.9219 87.4453 35.6094C87.6641 35.5 87.8594 35.2891 88.0312 34.9766L83.0625 24.1719L80.1328 26.7266V34.6484C80.4297 35.4141 80.9219 35.7969 81.6094 35.7969C81.9688 35.7969 82.3281 35.6562 82.6875 35.375C82.9219 35.5781 83.0391 35.9688 83.0391 36.5469C83.0391 37.1094 82.8125 37.5703 82.3594 37.9297C81.9062 38.2891 81.2969 38.4688 80.5312 38.4688C79.7656 38.4688 79.0781 38.2344 78.4688 37.7656C77.8281 38.2344 77.0703 38.4688 76.1953 38.4688C75.3203 38.4688 74.5156 38.2188 73.7812 37.7188ZM75.75 23.4922L75.7734 20.375V15.7812C75.7734 12.875 75.7188 11.1797 75.6094 10.6953C75.3906 9.74219 74.9922 9.07812 74.4141 8.70312V16.6016C74.4141 19.8359 74.375 21.6406 74.2969 22.0156C74.2344 22.375 74.1797 22.6406 74.1328 22.8125C73.9922 23.2969 73.4609 23.6953 72.5391 24.0078C73.4766 24.3359 74.0078 24.7266 74.1328 25.1797C74.3203 25.9297 74.4141 27.6172 74.4141 30.2422V31.7656C75.2422 31.2344 75.6797 29.8281 75.7266 27.5469V26.1406C75.7422 25.6719 75.75 25.2578 75.75 24.8984V23.4922ZM89.2969 31.7891C89.5 31.5234 89.6016 31.1641 89.6016 30.7109C89.6016 30.2578 89.5625 29.8516 89.4844 29.4922C89.4219 29.1328 89.3359 28.7734 89.2266 28.4141C89.0234 27.8359 88.7266 27.1484 88.3359 26.3516L86.1094 21.5234L85.0547 22.4609L89.2969 31.7891ZM118.055 35.7734C116.633 37.6484 114.5 38.5859 111.656 38.5859C108.188 38.5859 105.586 37.5469 103.852 35.4688C103.102 34.5781 102.586 33.5859 102.305 32.4922C102.148 31.8359 101.875 31.3359 101.484 30.9922C101.094 30.6328 100.609 30.3125 100.031 30.0312C101.156 29.5156 101.961 28.5469 102.445 27.125C102.961 25.625 103.82 24.5391 105.023 23.8672C106.32 23.1641 107.75 22.7969 109.312 22.7656C110.875 22.7188 112.031 22.6641 112.781 22.6016C113.531 22.5391 114.195 22.4375 114.773 22.2969C115.852 22.0469 116.695 21.5859 117.305 20.9141V17.3984C117.305 15.8516 116.984 14.7188 116.344 14C115.719 13.2812 114.758 12.9219 113.461 12.9219C112.18 12.9219 111.227 13.1641 110.602 13.6484C109.992 14.1172 109.688 14.75 109.688 15.5469C109.688 16.7656 110.312 17.3594 111.562 17.3281C111.312 18.5469 110.656 19.1562 109.594 19.1562C109.281 19.1562 108.977 19.1016 108.68 18.9922V19.0625C108.68 19.4688 108.867 19.7266 109.242 19.8359C108.852 20.4297 108.195 20.7188 107.273 20.7031C106.352 20.6875 105.633 20.1953 105.117 19.2266C104.883 19.2891 104.609 19.3203 104.297 19.3203C104 19.3203 103.664 19.2188 103.289 19.0156C102.93 18.8125 102.641 18.5312 102.422 18.1719C103.203 17.7031 103.68 16.9766 103.852 15.9922C104.039 14.7891 105 13.5703 106.734 12.3359C108.828 10.8516 111.5 10.1094 114.75 10.1094C120.141 10.1094 123.43 11.7656 124.617 15.0781C125.008 16.1875 125.203 17.5 125.203 19.0156V20.9141C125.203 21.6797 125.391 22.3047 125.766 22.7891C126.156 23.2734 126.812 23.6719 127.734 23.9844C126.75 24.4375 126.117 24.8438 125.836 25.2031C125.414 25.75 125.203 26.375 125.203 27.0781V34.1094C125.656 35.2812 126.305 35.8672 127.148 35.8672C127.68 35.8672 128.117 35.7344 128.461 35.4688C128.68 35.7656 128.789 36.1406 128.789 36.5938C128.789 37.0312 128.562 37.4531 128.109 37.8594C127.672 38.2656 127.008 38.4688 126.117 38.4688C125.227 38.4688 124.398 38.2188 123.633 37.7188C122.961 38.2188 122.359 38.4688 121.828 38.4688C121.312 38.4688 120.859 38.4141 120.469 38.3047C120.094 38.2109 119.742 38.0547 119.414 37.8359C118.68 37.3516 118.227 36.6641 118.055 35.7734ZM119.531 31.7891C120.438 31.4297 120.914 29.7031 120.961 26.6094C120.961 25.9531 120.961 25.2031 120.961 24.3594C120.961 23.5156 120.953 22.7969 120.938 22.2031C120.938 21.5938 120.93 21.0156 120.914 20.4688C120.852 18.5 120.672 17.3281 120.375 16.9531C120.078 16.5625 119.797 16.3047 119.531 16.1797V31.7891ZM110.883 30.125C110.883 30.7812 110.953 31.4219 111.094 32.0469C111.234 32.6719 111.445 33.2188 111.727 33.6875C112.352 34.6719 113.234 35.1641 114.375 35.1641C115.234 35.1641 115.945 34.8125 116.508 34.1094C117.039 33.4219 117.305 32.5391 117.305 31.4609V23.8203C116.305 24.3984 115.023 24.7969 113.461 25.0156C111.742 25.2812 110.883 26.9844 110.883 30.125ZM107.367 35.3984C107.523 35.2891 107.602 35.1484 107.602 34.9766C107.602 34.7422 107.492 34.4141 107.273 33.9922C106.492 32.5547 106.102 31.375 106.102 30.4531C106.102 29.5312 106.133 28.8672 106.195 28.4609C106.273 28.0547 106.367 27.7109 106.477 27.4297C106.602 27.1328 106.734 26.875 106.875 26.6562C107.031 26.4375 107.164 26.2422 107.273 26.0703C107.477 25.7109 107.578 25.4688 107.578 25.3438C107.578 25.2031 107.508 25.0859 107.367 24.9922C106.727 25.2891 106.258 25.6406 105.961 26.0469C105.43 26.7656 105.039 27.6953 104.789 28.8359C104.727 29.1641 104.18 29.5625 103.148 30.0312C104.148 30.4844 104.695 30.8828 104.789 31.2266C105.32 33.0859 106.18 34.4766 107.367 35.3984Z" fill="url(#paint0_linear_47_235)"/>
<defs>
<linearGradient id="paint0_linear_47_235" x1="136" y1="38" x2="-6.99765" y2="27.6921" gradientUnits="userSpaceOnUse">
<stop stop-color="#FFB400"/>
<stop offset="0.435059" stop-color="#581845"/>
<stop offset="0.717529" stop-color="#00A699"/>
<stop offset="1" stop-color="#FF444A"/>
</linearGradient>
</defs>
</svg>
